<svg width="7" height="13" viewBox="0 0 7 13" fill="none" xmlns="http://www.w3.org/2000/svg">
<path d="M5.52522 12.3332C5.40072 12.3337 5.27771 12.3062 5.16523 12.2528C5.05275 12.1995 4.95365 12.1216 4.87522 12.0249L0.850218 7.0249C0.72765 6.87579 0.660645 6.68876 0.660645 6.49574C0.660645 6.30272 0.72765 6.11568 0.850218 5.96657L5.01688 0.966571C5.15833 0.79639 5.36159 0.68937 5.58195 0.669054C5.8023 0.648737 6.0217 0.716789 6.19188 0.858238C6.36206 0.999686 6.46908 1.20295 6.4894 1.4233C6.50972 1.64366 6.44167 1.86306 6.30022 2.03324L2.57522 6.4999L6.17522 10.9666C6.27712 11.0889 6.34185 11.2378 6.36175 11.3958C6.38165 11.5538 6.35589 11.7141 6.28751 11.8579C6.21913 12.0017 6.11099 12.1228 5.9759 12.2071C5.84081 12.2913 5.68441 12.3351 5.52522 12.3332Z" fill="#BABABA"/>
</svg>
