<svg width="15" height="16" viewBox="0 0 15 16" fill="none" xmlns="http://www.w3.org/2000/svg">
<path d="M7 0.500008C5.50815 0.500008 4.07741 1.09264 3.02252 2.14753C1.96763 3.20242 1.375 4.63317 1.375 6.12501V9.12626L0.169996 12.1438C0.132255 12.2385 0.118281 12.3411 0.129295 12.4425C0.140309 12.5439 0.175975 12.6411 0.23318 12.7255C0.290386 12.81 0.367393 12.8791 0.457479 12.927C0.547565 12.9748 0.647993 12.9999 0.749996 13H4.5C4.5 14.385 5.615 15.5 7 15.5C8.385 15.5 9.5 14.385 9.5 13H13.25C13.352 12.9999 13.4524 12.9748 13.5425 12.927C13.6326 12.8791 13.7096 12.81 13.7668 12.7255C13.824 12.6411 13.8597 12.5439 13.8707 12.4425C13.8817 12.3411 13.8677 12.2385 13.83 12.1438L12.625 9.12501V6.75001C12.1948 6.75065 11.7692 6.66212 11.375 6.49001V9.24751C11.3752 9.32675 11.3905 9.40522 11.42 9.47876L12.3275 11.75H1.6725L2.58 9.47876C2.60952 9.40522 2.62479 9.32675 2.625 9.24751V6.12501C2.62478 5.30909 2.85273 4.50937 3.2831 3.81619C3.71347 3.123 4.32911 2.56398 5.06047 2.20226C5.79182 1.84055 6.60976 1.69056 7.42187 1.76924C8.23399 1.84792 9.00792 2.15213 9.65625 2.64751C9.79 2.24126 10.005 1.87001 10.2825 1.55626C9.32666 0.867681 8.17802 0.498069 7 0.500008ZM8.25 13C8.25 13.695 7.69499 14.25 7 14.25C6.305 14.25 5.75 13.695 5.75 13H8.25ZM11.21 2.39501C11.0315 2.59966 10.8997 2.84079 10.8239 3.10158C10.7482 3.36237 10.7302 3.63655 10.7712 3.90501C10.8375 4.34902 11.0612 4.75442 11.4015 5.04722C11.7418 5.34003 12.1761 5.50073 12.625 5.50001C12.9389 5.50004 13.2478 5.42126 13.5233 5.2709C13.7989 5.12054 14.0322 4.90341 14.2021 4.63942C14.3719 4.37542 14.4727 4.07302 14.4953 3.75994C14.5179 3.44685 14.4615 3.13311 14.3314 2.84747C14.2012 2.56184 14.0014 2.31345 13.7503 2.12509C13.4992 1.93674 13.2048 1.81443 12.8942 1.7694C12.5835 1.72437 12.2665 1.75805 11.9723 1.86736C11.678 1.97666 11.4159 2.15809 11.21 2.39501Z" fill="#858585"/>
</svg>
