<svg width="18" height="18" viewBox="0 0 18 18" fill="none" xmlns="http://www.w3.org/2000/svg">
<path d="M7.33341 3.99984H10.6667C10.6667 3.55781 10.4912 3.13389 10.1786 2.82133C9.86603 2.50877 9.44211 2.33317 9.00008 2.33317C8.55805 2.33317 8.13413 2.50877 7.82157 2.82133C7.50901 3.13389 7.33341 3.55781 7.33341 3.99984ZM5.66675 3.99984C5.66675 3.11578 6.01794 2.26794 6.64306 1.64281C7.26818 1.01769 8.11603 0.666504 9.00008 0.666504C9.88414 0.666504 10.732 1.01769 11.3571 1.64281C11.9822 2.26794 12.3334 3.11578 12.3334 3.99984H16.5001C16.7211 3.99984 16.9331 4.08763 17.0893 4.24392C17.2456 4.4002 17.3334 4.61216 17.3334 4.83317C17.3334 5.05418 17.2456 5.26615 17.0893 5.42243C16.9331 5.57871 16.7211 5.6665 16.5001 5.6665H15.7651L15.0267 14.2832C14.9558 15.1152 14.5751 15.8903 13.96 16.4551C13.3449 17.0199 12.5402 17.3333 11.7051 17.3332H6.29508C5.46001 17.3333 4.65531 17.0199 4.04021 16.4551C3.4251 15.8903 3.0444 15.1152 2.97341 14.2832L2.23508 5.6665H1.50008C1.27907 5.6665 1.06711 5.57871 0.910826 5.42243C0.754545 5.26615 0.666748 5.05418 0.666748 4.83317C0.666748 4.61216 0.754545 4.4002 0.910826 4.24392C1.06711 4.08763 1.27907 3.99984 1.50008 3.99984H5.66675ZM11.5001 8.99984C11.5001 8.77882 11.4123 8.56686 11.256 8.41058C11.0997 8.2543 10.8878 8.1665 10.6667 8.1665C10.4457 8.1665 10.2338 8.2543 10.0775 8.41058C9.92121 8.56686 9.83341 8.77882 9.83341 8.99984V12.3332C9.83341 12.5542 9.92121 12.7661 10.0775 12.9224C10.2338 13.0787 10.4457 13.1665 10.6667 13.1665C10.8878 13.1665 11.0997 13.0787 11.256 12.9224C11.4123 12.7661 11.5001 12.5542 11.5001 12.3332V8.99984ZM7.33341 8.1665C7.1124 8.1665 6.90044 8.2543 6.74416 8.41058C6.58788 8.56686 6.50008 8.77882 6.50008 8.99984V12.3332C6.50008 12.5542 6.58788 12.7661 6.74416 12.9224C6.90044 13.0787 7.1124 13.1665 7.33341 13.1665C7.55443 13.1665 7.76639 13.0787 7.92267 12.9224C8.07895 12.7661 8.16675 12.5542 8.16675 12.3332V8.99984C8.16675 8.77882 8.07895 8.56686 7.92267 8.41058C7.76639 8.2543 7.55443 8.1665 7.33341 8.1665Z" fill="url(#paint0_linear_534_5885)"/>
<defs>
<linearGradient id="paint0_linear_534_5885" x1="0.999999" y1="1" x2="17" y2="17" gradientUnits="userSpaceOnUse">
<stop stop-color="#FF512F"/>
<stop offset="1" stop-color="#DD2476"/>
</linearGradient>
</defs>
</svg>
