<svg width="16" height="18" viewBox="0 0 16 18" fill="none" xmlns="http://www.w3.org/2000/svg">
<path d="M13.8325 17.3334H2.16583C1.72381 17.3334 1.29988 17.1578 0.987322 16.8452C0.674761 16.5326 0.499166 16.1087 0.499166 15.6667V4.00002C0.499166 3.55799 0.674761 3.13407 0.987322 2.82151C1.29988 2.50895 1.72381 2.33335 2.16583 2.33335H3.8325V0.666687H5.49917V2.33335H10.4992V0.666687H12.1658V2.33335H13.8325C14.2745 2.33335 14.6985 2.50895 15.011 2.82151C15.3236 3.13407 15.4992 3.55799 15.4992 4.00002V15.6667C15.4992 16.1087 15.3236 16.5326 15.011 16.8452C14.6985 17.1578 14.2745 17.3334 13.8325 17.3334ZM2.16583 7.33335V15.6667H13.8325V7.33335H2.16583ZM2.16583 4.00002V5.66669H13.8325V4.00002H2.16583Z" fill="#BABABA"/>
</svg>
