<svg width="26" height="26" viewBox="0 0 26 26" fill="none" xmlns="http://www.w3.org/2000/svg">
<path d="M13 25.5C11.358 25.5016 9.73183 25.1794 8.21452 24.5518C6.69721 23.9242 5.31856 23.0036 4.1575 21.8425C2.99644 20.6814 2.07576 19.3028 1.44816 17.7855C0.820561 16.2682 0.498362 14.642 0.500006 13V12.75C0.550017 10.2993 1.31912 7.91726 2.71174 5.90003C4.10436 3.8828 6.05907 2.31929 8.33295 1.40383C10.6068 0.488362 13.0996 0.261307 15.5015 0.750882C17.9033 1.24046 20.1084 2.42507 21.8425 4.1575C23.5921 5.90569 24.7838 8.13363 25.2668 10.5594C25.7497 12.9851 25.5021 15.4996 24.5554 17.7845C23.6087 20.0695 22.0054 22.0223 19.9485 23.3957C17.8915 24.7691 15.4733 25.5015 13 25.5ZM13 14.7625L16.2375 18L18 16.2375L14.7625 13L18 9.7625L16.2375 8L13 11.2375L9.76251 8L8.00001 9.7625L11.2375 13L8.00001 16.2375L9.76251 18L13 14.7638V14.7625Z" fill="#4D4D4D"/>
</svg>
