<svg width="28" height="28" viewBox="0 0 28 28" fill="none" xmlns="http://www.w3.org/2000/svg">
<path d="M14 0.875C17.481 0.875 20.8194 2.25781 23.2808 4.71922C25.7422 7.18064 27.125 10.519 27.125 14C27.125 17.481 25.7422 20.8194 23.2808 23.2808C20.8194 25.7422 17.481 27.125 14 27.125C10.519 27.125 7.18064 25.7422 4.71922 23.2808C2.25781 20.8194 0.875 17.481 0.875 14C0.875 10.519 2.25781 7.18064 4.71922 4.71922C7.18064 2.25781 10.519 0.875 14 0.875ZM14 12.4081L10.9513 9.35938C10.7402 9.14828 10.4538 9.02969 10.1553 9.02969C9.85678 9.02969 9.57047 9.14828 9.35938 9.35938C9.14828 9.57047 9.02969 9.85678 9.02969 10.1553C9.02969 10.4538 9.14828 10.7402 9.35938 10.9513L12.4081 14L9.35938 17.0487C9.25485 17.1533 9.17194 17.2774 9.11537 17.4139C9.0588 17.5505 9.02969 17.6969 9.02969 17.8447C9.02969 17.9925 9.0588 18.1389 9.11537 18.2754C9.17194 18.412 9.25485 18.5361 9.35938 18.6406C9.4639 18.7451 9.58799 18.8281 9.72455 18.8846C9.86112 18.9412 10.0075 18.9703 10.1553 18.9703C10.3031 18.9703 10.4495 18.9412 10.5861 18.8846C10.7226 18.8281 10.8467 18.7451 10.9513 18.6406L14 15.5919L17.0487 18.6406C17.1533 18.7451 17.2774 18.8281 17.4139 18.8846C17.5505 18.9412 17.6969 18.9703 17.8447 18.9703C17.9925 18.9703 18.1389 18.9412 18.2754 18.8846C18.412 18.8281 18.5361 18.7451 18.6406 18.6406C18.7451 18.5361 18.8281 18.412 18.8846 18.2754C18.9412 18.1389 18.9703 17.9925 18.9703 17.8447C18.9703 17.6969 18.9412 17.5505 18.8846 17.4139C18.8281 17.2774 18.7451 17.1533 18.6406 17.0487L15.5919 14L18.6406 10.9513C18.7451 10.8467 18.8281 10.7226 18.8846 10.5861C18.9412 10.4495 18.9703 10.3031 18.9703 10.1553C18.9703 10.0075 18.9412 9.86112 18.8846 9.72455C18.8281 9.58799 18.7451 9.4639 18.6406 9.35938C18.5361 9.25485 18.412 9.17194 18.2754 9.11537C18.1389 9.0588 17.9925 9.02969 17.8447 9.02969C17.6969 9.02969 17.5505 9.0588 17.4139 9.11537C17.2774 9.17194 17.1533 9.25485 17.0487 9.35938L14 12.4081Z" fill="#BABABA"/>
</svg>
