<svg width="16" height="16" viewBox="0 0 16 16" fill="none" xmlns="http://www.w3.org/2000/svg">
<path d="M5.25583 14.4224L13 6.67827L9.32167 2.99994L1.5775 10.7441C1.47089 10.8509 1.39515 10.9845 1.35833 11.1308L0.5 15.4999L4.86833 14.6416C5.015 14.6049 5.14917 14.5291 5.25583 14.4224ZM15.5 4.17827C15.8125 3.86573 15.988 3.44188 15.988 2.99994C15.988 2.558 15.8125 2.13415 15.5 1.82161L14.1783 0.49994C13.8658 0.187489 13.4419 0.0119629 13 0.0119629C12.5581 0.0119629 12.1342 0.187489 11.8217 0.49994L10.5 1.82161L14.1783 5.49994L15.5 4.17827Z" fill="#858585"/>
</svg>
