<svg width="15" height="15" viewBox="0 0 15 15" fill="none" xmlns="http://www.w3.org/2000/svg">
<path d="M8.625 0.9375C8.625 0.68886 8.52623 0.450403 8.35041 0.274587C8.1746 0.0987719 7.93614 0 7.6875 0C7.43886 0 7.2004 0.0987719 7.02459 0.274587C6.84877 0.450403 6.75 0.68886 6.75 0.9375V6.25H1.4375C1.18886 6.25 0.950403 6.34877 0.774587 6.52459C0.598772 6.7004 0.5 6.93886 0.5 7.1875C0.5 7.43614 0.598772 7.6746 0.774587 7.85041C0.950403 8.02623 1.18886 8.125 1.4375 8.125H6.75V13.4375C6.75 13.6861 6.84877 13.9246 7.02459 14.1004C7.2004 14.2762 7.43886 14.375 7.6875 14.375C7.93614 14.375 8.1746 14.2762 8.35041 14.1004C8.52623 13.9246 8.625 13.6861 8.625 13.4375V8.125H13.9375C14.1861 8.125 14.4246 8.02623 14.6004 7.85041C14.7762 7.6746 14.875 7.43614 14.875 7.1875C14.875 6.93886 14.7762 6.7004 14.6004 6.52459C14.4246 6.34877 14.1861 6.25 13.9375 6.25H8.625V0.9375Z" fill="#676768"/>
</svg>
