<svg width="449" height="270" viewBox="0 0 449 270" fill="none" xmlns="http://www.w3.org/2000/svg">
<path d="M441.096 63.9816L434.078 95.1288L429.561 91.0901L421.876 96.1167L416.002 89.4303L402.831 98.2066L391.574 80.9563L379.02 87.6965L374.04 81.4066L358.098 89.6386L353.302 80.2239L364.478 30.6235L424.391 41.9602L441.096 63.9816Z" fill="#EBEBEB"/>
<path d="M424.391 41.9602L441.097 63.9816L420.314 60.0504L424.391 41.9602Z" fill="#DBDBDB"/>
<path d="M432.582 101.351L422.294 147.047L341.59 131.78L351.806 86.4531L356.602 95.8611L372.552 87.6291L377.524 93.919L390.086 87.1856L401.335 104.436L414.513 95.6595L420.38 102.339L428.072 97.3194L432.582 101.351Z" fill="#EBEBEB"/>
<path d="M317.075 95.9956L234.832 100.659L228.298 3.9182L289.37 0.450684L311.788 17.6875L317.075 95.9956Z" fill="#EBEBEB"/>
<path d="M289.37 0.450684L311.788 17.6875L290.609 18.8904L289.37 0.450684Z" fill="#DBDBDB"/>
<path d="M266.6 65.5474L266.277 63.3634C265.448 58.8409 266.798 53.7807 271.088 48.4921C274.96 43.7881 277.057 40.4281 276.822 36.6111C276.558 32.3103 273.442 29.5954 267.641 29.8105C264.326 29.9683 261.142 31.0464 258.511 32.9017L255.981 27.7071C258.914 25.5231 264.048 23.9103 268.924 23.6751C279.506 23.1375 284.654 28.8764 285.058 35.2806C285.41 41.0127 282.168 45.3202 278.047 50.3535C274.263 54.9433 273.024 58.7266 273.559 63.0073L273.786 65.198L266.6 65.5474ZM265.294 77.4486C265.104 74.3305 267.267 72.0188 270.486 71.8575C273.706 71.6962 276.052 73.766 276.243 76.8908C276.419 79.8409 274.446 82.2198 271.044 82.3945C267.795 82.5625 265.448 80.3986 265.265 77.4486H265.294Z" fill="#DBDBDB"/>
<path d="M60.8853 49.0902L52.6133 45.6562L51.4619 47.9746C51.2919 48.306 51.0267 48.5886 50.6946 48.7922C50.3626 48.9959 49.9763 49.1128 49.5773 49.1305C49.1227 49.1441 48.6695 49.1846 48.2206 49.2515C47.8265 49.3051 47.424 49.2596 47.0559 49.12C46.6878 48.9803 46.368 48.7517 46.1306 48.4585L44.5099 46.382L37.1253 51.2339L38.7459 53.3103C38.9713 53.61 39.104 53.9601 39.1298 54.3233C39.1557 54.6865 39.0737 55.0494 38.8926 55.3734C38.6835 55.7429 38.495 56.122 38.3279 56.509C38.1827 56.8504 37.9386 57.149 37.6221 57.3727C37.3055 57.5965 36.9284 57.737 36.5313 57.7791L33.7666 58.0278L34.6539 66.3135L37.4333 66.0582C37.8319 66.029 38.2316 66.0999 38.5895 66.2633C38.9474 66.4267 39.2499 66.6764 39.4646 66.9855C39.5819 67.1603 39.7066 67.3282 39.8386 67.4962C39.9706 67.6642 40.1026 67.8255 40.2419 67.9868C40.495 68.269 40.6577 68.6099 40.7121 68.9717C40.7665 69.3335 40.7104 69.7021 40.5499 70.0364L39.3913 72.375L47.6706 75.8156L48.8219 73.4838C48.9935 73.1527 49.2604 72.8708 49.5937 72.6684C49.9271 72.4659 50.3144 72.3505 50.7139 72.3346C51.1634 72.3177 51.6115 72.2773 52.0559 72.2137C52.45 72.1601 52.8526 72.2055 53.2207 72.3452C53.5888 72.4848 53.9086 72.7134 54.1459 73.0066L55.7666 75.0831L63.1586 70.2313L61.5379 68.1548C61.3056 67.8578 61.1687 67.5071 61.1428 67.1425C61.1168 66.7779 61.2029 66.4139 61.3913 66.0918C61.5956 65.7243 61.7791 65.3475 61.9413 64.9628C62.0823 64.619 62.3251 64.318 62.6425 64.0937C62.9599 63.8693 63.3392 63.7305 63.7379 63.6927L66.5173 63.4374L65.6226 55.1516L62.8433 55.4002C62.4472 55.4321 62.0492 55.363 61.6933 55.2005C61.3374 55.0381 61.0374 54.7886 60.8266 54.4796C60.7019 54.3049 60.5773 54.1369 60.4453 53.9689C60.3133 53.8009 60.1813 53.6329 60.0419 53.4783C59.7906 53.1927 59.6291 52.8496 59.5748 52.4861C59.5205 52.1225 59.5755 51.7523 59.7339 51.4153L60.8853 49.0902ZM56.1919 56.7577C57.0495 57.8543 57.5329 59.1593 57.581 60.5077C57.6291 61.8561 57.2398 63.1873 56.4623 64.333C55.6847 65.4786 54.5539 66.3872 53.2128 66.9438C51.8718 67.5005 50.3806 67.6802 48.9281 67.4602C47.4755 67.2403 46.1268 66.6305 45.0524 65.7081C43.9781 64.7856 43.2264 63.592 42.8924 62.278C42.5584 60.9641 42.6571 59.5889 43.1761 58.3264C43.6951 57.0638 44.611 55.9707 45.8079 55.1852C47.4126 54.1322 49.408 53.7063 51.3553 54.0012C53.3025 54.296 55.0423 55.2876 56.1919 56.7577V56.7577Z" fill="#EBEBEB"/>
<path d="M434.812 159.029L429.297 161.946L430.272 163.491C430.418 163.713 430.49 163.969 430.481 164.227C430.472 164.486 430.382 164.737 430.221 164.95C430.052 165.192 429.891 165.44 429.744 165.702C429.624 165.934 429.433 166.129 429.196 166.265C428.958 166.401 428.682 166.471 428.402 166.468H426.466V172.308H428.417C428.697 172.305 428.972 172.375 429.21 172.511C429.448 172.647 429.639 172.842 429.759 173.074C429.906 173.336 430.067 173.585 430.236 173.827C430.397 174.039 430.487 174.29 430.496 174.549C430.505 174.808 430.433 175.063 430.287 175.285L429.312 176.831L434.826 179.747L435.809 178.195C435.951 177.975 436.158 177.795 436.405 177.676C436.653 177.558 436.931 177.504 437.21 177.523H438.148C438.427 177.505 438.705 177.559 438.952 177.677C439.199 177.796 439.406 177.975 439.549 178.195L440.532 179.754L446.039 176.837L445.064 175.285C444.925 175.062 444.857 174.808 444.867 174.552C444.878 174.295 444.966 174.046 445.122 173.833C445.291 173.592 445.452 173.336 445.599 173.081C445.719 172.849 445.91 172.654 446.148 172.518C446.386 172.382 446.661 172.312 446.941 172.315H448.892V166.475H446.926C446.646 166.478 446.371 166.408 446.133 166.272C445.895 166.136 445.705 165.941 445.584 165.709C445.438 165.454 445.276 165.198 445.108 164.956C444.951 164.743 444.863 164.495 444.853 164.238C444.842 163.982 444.91 163.728 445.049 163.505L446.024 161.953L440.517 159.036L439.534 160.568C439.392 160.788 439.186 160.968 438.938 161.087C438.691 161.205 438.412 161.258 438.134 161.24H437.664H437.195C436.916 161.257 436.636 161.204 436.388 161.085C436.14 160.967 435.932 160.788 435.787 160.568L434.812 159.029ZM437.664 164.607C438.698 164.606 439.708 164.885 440.568 165.41C441.428 165.936 442.098 166.683 442.494 167.557C442.89 168.432 442.994 169.395 442.793 170.323C442.592 171.252 442.094 172.105 441.364 172.775C440.633 173.444 439.702 173.9 438.688 174.085C437.675 174.269 436.624 174.174 435.67 173.811C434.716 173.448 433.9 172.833 433.327 172.046C432.754 171.258 432.449 170.332 432.45 169.385C432.449 168.757 432.584 168.135 432.845 167.554C433.107 166.974 433.491 166.446 433.975 166.002C434.459 165.558 435.034 165.205 435.667 164.965C436.3 164.724 436.979 164.6 437.664 164.6V164.607Z" fill="#EBEBEB"/>
<path d="M77.6199 24.2597L72.5672 27.8079L73.7332 29.2258C73.9071 29.4279 74.0141 29.6714 74.0414 29.9275C74.0687 30.1836 74.0152 30.4416 73.8872 30.6706C73.7469 30.9322 73.6244 31.2015 73.5205 31.477C73.4302 31.7197 73.2676 31.9345 73.0513 32.0971C72.8349 32.2598 72.5733 32.3639 72.2959 32.3977L70.3599 32.6261L71.1812 38.4121L73.1172 38.1836C73.399 38.1476 73.6862 38.1853 73.9457 38.2923C74.2051 38.3993 74.4264 38.5712 74.5839 38.7884C74.7605 39.0221 74.9514 39.2465 75.1559 39.4604C75.3448 39.6508 75.4701 39.8869 75.5169 40.1406C75.5637 40.3943 75.53 40.655 75.4199 40.8917L74.6865 42.5449L80.5532 44.7826L81.2865 43.1295C81.3957 42.8924 81.5751 42.688 81.8045 42.5395C82.0339 42.391 82.3042 42.3044 82.5845 42.2895L83.0539 42.2425L83.5159 42.1753C83.7873 42.1284 84.0675 42.1506 84.3261 42.2395C84.5846 42.3283 84.8117 42.4804 84.9825 42.6793L86.1779 44.1106L91.2305 40.5625L90.0499 39.1445C89.8793 38.9397 89.7746 38.6953 89.7474 38.4389C89.7202 38.1824 89.7716 37.9241 89.8959 37.693C90.0349 37.4332 90.1573 37.1662 90.2625 36.8933C90.3529 36.6506 90.5154 36.4359 90.7318 36.2732C90.9482 36.1106 91.2098 36.0065 91.4872 35.9727L93.4232 35.7442L92.6019 29.9583L90.6659 30.1868C90.3848 30.2235 90.0981 30.1868 89.8387 30.081C89.5793 29.9753 89.3576 29.8046 89.1992 29.5887C89.0159 29.3468 88.8252 29.1183 88.6199 28.9167C88.449 28.7222 88.3385 28.4892 88.2998 28.2421C88.2611 27.995 88.2956 27.7429 88.3999 27.5122L89.1332 25.8591L83.2665 23.6213L82.5332 25.2745C82.4227 25.5107 82.2429 25.7143 82.0137 25.8625C81.7846 26.0108 81.5151 26.098 81.2352 26.1145L80.7659 26.1548L80.3332 26.1682C80.0618 26.2151 79.7816 26.1929 79.523 26.104C79.2644 26.0152 79.0374 25.8631 78.8665 25.6642L77.6199 24.2597ZM81.2352 29.4543C82.2567 29.334 83.2943 29.4936 84.2169 29.9129C85.1396 30.3323 85.906 30.9927 86.4195 31.8108C86.9331 32.6289 87.1708 33.568 87.1025 34.5097C87.0343 35.4515 86.6632 36.3536 86.0362 37.1023C85.4091 37.8509 84.5541 38.4127 83.5791 38.7166C82.604 39.0205 81.5526 39.053 80.5574 38.81C79.5622 38.567 78.6678 38.0593 77.9871 37.3511C77.3064 36.6428 76.8699 35.7657 76.7325 34.8303C76.6409 34.2061 76.6848 33.5715 76.8618 32.9629C77.0388 32.3543 77.3453 31.7838 77.7638 31.2842C78.1822 30.7846 78.7044 30.3657 79.3001 30.0517C79.8959 29.7376 80.5535 29.5346 81.2352 29.4543Z" fill="#EBEBEB"/>
<path d="M39.8677 175.876C40.1432 169.38 40.0453 162.875 39.5743 156.388C38.5251 142.993 36.2958 129.698 32.9083 116.633C31.0457 109.281 28.7577 102.05 26.367 94.8263C26.2937 94.6046 25.9123 94.6651 25.9783 94.8935C33.363 120.362 39.4203 146.638 39.0023 173.114C38.885 180.506 37.9463 187.798 37.1837 195.163C37.1837 195.358 37.5137 195.438 37.565 195.237C39.083 188.913 39.5817 182.314 39.8677 175.876Z" fill="#EBEBEB"/>
<path d="M25.9786 94.8735C25.9786 94.8735 14.8026 120.88 17.3032 126.968C19.8039 133.057 24.9666 134.36 24.9666 134.36C24.9666 134.36 18.1246 143.311 22.9059 151.705C27.6872 160.098 38.3059 159.701 39.0392 169.217C39.0172 169.264 39.6039 129.475 25.9786 94.8735Z" fill="#EBEBEB"/>
<path d="M37.7999 152.834C37.8179 152.79 37.8179 152.742 37.7999 152.699C36.3331 134.944 32.6974 117.396 26.9612 100.384C26.9612 100.337 26.8512 100.35 26.8659 100.384C29.0805 108 31.0361 115.647 32.7325 123.326C31.23 122.022 29.3945 121.084 27.3939 120.598C27.3939 120.598 27.3352 120.638 27.3939 120.651C29.4956 121.357 31.3852 122.509 32.9085 124.011C33.2312 125.523 33.5539 127.029 33.8545 128.541C31.3539 125.98 27.8925 124.71 24.4239 123.501C24.416 123.504 24.4093 123.509 24.4047 123.516C24.4 123.522 24.3975 123.53 24.3975 123.538C24.3975 123.546 24.4 123.553 24.4047 123.56C24.4093 123.566 24.416 123.572 24.4239 123.575C28.0392 124.919 31.6325 126.652 34.0819 129.508C34.9325 133.823 35.6805 138.153 36.3259 142.498C34.5203 140.765 32.2047 139.549 29.6599 138.997C29.5792 138.997 29.5352 139.084 29.6159 139.105C32.23 139.81 34.5639 141.197 36.3332 143.096H36.3772C36.5972 144.619 36.8074 146.149 37.0079 147.686C35.6111 146.603 34.034 145.732 32.3365 145.106C32.2925 145.106 32.2632 145.153 32.3365 145.166C34.0688 145.854 35.6551 146.816 37.0225 148.009C37.0225 148.009 37.0592 148.009 37.0812 148.009C37.2645 149.467 37.4479 150.925 37.6092 152.383C35.091 149.594 31.823 147.454 28.1272 146.174C28.1117 146.174 28.0967 146.18 28.0857 146.19C28.0747 146.2 28.0685 146.214 28.0685 146.228C28.0685 146.242 28.0747 146.256 28.0857 146.266C28.0967 146.276 28.1117 146.282 28.1272 146.282C31.7766 147.756 34.9821 150.017 37.4699 152.874C37.4973 152.905 37.5342 152.928 37.576 152.94C37.6178 152.952 37.6626 152.953 37.7045 152.941C37.9465 155.179 38.1665 157.417 38.3425 159.661C38.3425 159.695 38.4012 159.695 38.4012 159.661C38.2105 157.408 38.0101 155.132 37.7999 152.834Z" fill="white"/>
<path d="M28.8165 118.037C26.7925 116.883 24.4803 116.221 22.0992 116.115C22.0875 116.115 22.0763 116.119 22.0681 116.127C22.0598 116.135 22.0552 116.145 22.0552 116.156C22.0552 116.166 22.0598 116.176 22.0681 116.184C22.0763 116.192 22.0875 116.196 22.0992 116.196C24.4013 116.596 26.6354 117.274 28.7432 118.212C28.8312 118.232 28.8972 118.091 28.8165 118.037Z" fill="white"/>
<path d="M30.1732 145.569C28.6176 144.751 26.9046 144.215 25.1278 143.99C25.0692 143.99 25.0618 144.064 25.1278 144.077C26.8629 144.396 28.5411 144.934 30.1145 145.676C30.1805 145.71 30.2392 145.603 30.1732 145.569Z" fill="white"/>
<path d="M69.2597 127.418C64.5318 130.413 60.1896 133.889 56.3163 137.781C52.3218 141.901 49.2408 146.694 47.245 151.893C42.9974 162.724 40.7134 174.12 40.4837 185.627C40.3412 192 41.0081 198.366 42.471 204.598C42.4829 204.643 42.5133 204.682 42.5559 204.708C42.5986 204.733 42.6503 204.742 42.7002 204.734C42.7502 204.725 42.7946 204.699 42.8243 204.661C42.854 204.623 42.8666 204.577 42.8597 204.53C41.0393 193.534 41.1086 182.344 43.065 171.367C44.9863 160.615 48.0003 148.909 55.4657 140.166C59.5283 135.402 64.5957 131.659 69.6043 127.788C69.8683 127.573 69.531 127.244 69.2597 127.418Z" fill="#EBEBEB"/>
<path d="M42.1265 177.872C44.8177 173.883 47.9803 170.178 51.5571 166.824C57.1525 161.697 61.8605 158.055 62.5938 154.668C63.3271 151.281 56.9911 148.781 56.9911 148.781C56.9911 148.781 64.7278 150.058 66.8471 147.081C68.9665 144.104 69.9858 126.861 69.9858 126.861C69.9858 126.861 55.9058 136.074 49.3425 148.99C42.7791 161.905 42.1265 177.872 42.1265 177.872Z" fill="#EBEBEB"/>
<path d="M64.9329 143.036C64.0057 142.909 63.0659 142.88 62.1315 142.948C62.0215 142.948 62.0289 143.123 62.1315 143.13C63.0555 143.13 63.9869 143.09 64.9109 143.13C64.9214 143.128 64.931 143.123 64.9386 143.115C64.9461 143.108 64.9513 143.099 64.9536 143.089C64.9559 143.08 64.9552 143.069 64.9515 143.06C64.9478 143.05 64.9414 143.042 64.9329 143.036V143.036Z" fill="white"/>
<path d="M54.8203 159.762C53.3335 159.789 51.8638 160.058 50.479 160.555C50.479 160.555 50.479 160.622 50.479 160.615C51.9457 160.299 53.361 160.172 54.813 159.943C54.832 159.936 54.8482 159.923 54.8598 159.908C54.8715 159.892 54.8781 159.874 54.8788 159.855C54.8796 159.836 54.8745 159.817 54.8642 159.8C54.8538 159.784 54.8386 159.771 54.8203 159.762V159.762Z" fill="white"/>
<path d="M51.7842 153.982C51.1669 153.978 50.5505 154.028 49.9435 154.131C49.9323 154.134 49.9226 154.141 49.9158 154.15C49.9089 154.159 49.9053 154.17 49.9053 154.181C49.9053 154.192 49.9089 154.203 49.9158 154.212C49.9226 154.221 49.9323 154.228 49.9435 154.232C50.5582 154.264 51.175 154.239 51.7842 154.158C51.8095 154.158 51.8337 154.148 51.8516 154.132C51.8695 154.115 51.8795 154.093 51.8795 154.07C51.8795 154.047 51.8695 154.025 51.8516 154.008C51.8337 153.992 51.8095 153.982 51.7842 153.982V153.982Z" fill="white"/>
<path d="M0.847057 145.71C5.4298 147.134 9.82127 149.03 13.9371 151.362C18.2075 153.848 21.9109 157.071 24.8417 160.85C31.0083 168.716 35.7297 177.453 38.8191 186.716C40.542 191.844 41.6052 197.14 41.9871 202.494C41.979 202.529 41.9583 202.56 41.9282 202.582C41.8982 202.605 41.8607 202.617 41.8221 202.617C41.7834 202.617 41.7459 202.605 41.7159 202.582C41.6858 202.56 41.6651 202.529 41.6571 202.494C40.3626 193.21 37.4872 184.169 33.1357 175.702C28.8604 167.402 23.4704 158.572 15.2277 153.075C10.7397 150.085 5.69439 148.123 0.663724 146.053C0.399724 145.972 0.583057 145.63 0.847057 145.71Z" fill="#EBEBEB"/>
<path d="M35.5338 180.795C32.3478 178.139 28.8533 175.811 25.1131 173.854C19.2904 170.89 14.5604 168.941 13.1158 166.354C11.6711 163.767 16.1664 160.407 16.1664 160.407C16.1664 160.407 10.2264 163.095 7.76243 161.113C5.29843 159.13 0.121094 145.421 0.121094 145.421C0.121094 145.421 13.8418 149.89 22.3998 158.955C30.9578 168.021 35.5338 180.795 35.5338 180.795Z" fill="#EBEBEB"/>
<path d="M24.1451 168.175C22.7961 168.089 21.4416 168.242 20.1558 168.625C20.1558 168.625 20.1558 168.686 20.1558 168.679C21.4676 168.473 22.793 168.347 24.1231 168.303C24.2184 168.303 24.2404 168.182 24.1451 168.175Z" fill="white"/>
<path d="M12.1772 153.794C11.5619 153.748 10.9425 153.78 10.3366 153.889C10.2706 153.889 10.2926 153.996 10.3366 153.99C10.9452 153.929 11.5392 153.949 12.1406 153.936C12.1593 153.937 12.1776 153.931 12.1925 153.921C12.2074 153.911 12.2179 153.896 12.2222 153.879C12.2266 153.862 12.2245 153.845 12.2162 153.829C12.208 153.814 12.1942 153.802 12.1772 153.794V153.794Z" fill="white"/>
<path d="M53.2289 219.825H22.2603L26.6749 190.183L27.8043 182.583H47.6849L48.8143 190.183L53.2289 219.825Z" fill="#DBDBDB"/>
<path d="M48.8146 190.183H26.6753L27.8046 182.583H47.6853L48.8146 190.183Z" fill="#C7C7C7"/>
<path d="M50.523 179.949H24.959V186.387H50.523V179.949Z" fill="#DBDBDB"/>
<path d="M2.5708 219.825L58.3115 219.664L114.052 219.603L225.533 219.489L337.015 219.603L392.755 219.664L448.496 219.825L392.755 219.993L337.015 220.047L225.533 220.161L114.052 220.047L58.3115 219.986L2.5708 219.825Z" fill="#263238"/>
<path d="M227 269.909C343.132 269.909 437.276 260.456 437.276 248.795C437.276 237.134 343.132 227.681 227 227.681C110.868 227.681 16.7241 237.134 16.7241 248.795C16.7241 260.456 110.868 269.909 227 269.909Z" fill="#EBEBEB"/>
<path d="M178.05 245.3C176.342 245.831 127.348 245.972 125.47 244.911C124.737 244.507 124.319 237.969 124.004 230.053C123.938 228.346 123.886 226.578 123.842 224.791L119.934 200.841L152.692 200.646L155.779 224.603L155.654 229.871C155.654 229.871 174.442 237.498 176.364 238.883C178.285 240.267 179.759 244.77 178.05 245.3Z" fill="#EB9481"/>
<path d="M178.05 245.3C176.342 245.831 127.348 245.972 125.47 244.911C124.605 244.413 124.136 234.864 123.872 224.791L155.742 224.603L155.618 229.871C155.618 229.871 174.406 237.498 176.327 238.883C178.248 240.267 179.759 244.769 178.05 245.3Z" fill="white"/>
<path d="M178.05 245.3C176.341 245.831 127.347 245.972 125.47 244.911C124.737 244.508 124.319 237.969 124.003 230.053L155.588 229.871C155.588 229.871 174.376 237.499 176.297 238.883C178.219 240.267 179.759 244.77 178.05 245.3Z" fill="#A6A6A6"/>
<path d="M177.339 243.506C169.125 243.345 135.979 243.419 127.846 243.836C127.78 243.836 127.78 243.876 127.846 243.883C135.986 244.198 169.133 243.883 177.339 243.627C177.515 243.621 177.515 243.506 177.339 243.506Z" fill="#263238"/>
<path d="M173.166 237.277C172.253 237.258 171.345 237.413 170.501 237.732C169.656 238.052 168.893 238.528 168.26 239.131C167.106 240.208 166.454 241.654 166.441 243.163C166.441 243.21 166.529 243.21 166.537 243.163C166.809 241.677 167.599 240.311 168.789 239.269C169.978 238.227 171.504 237.566 173.137 237.384C173.152 237.388 173.169 237.386 173.183 237.378C173.196 237.37 173.206 237.358 173.21 237.344C173.214 237.33 173.212 237.315 173.203 237.302C173.195 237.289 173.182 237.28 173.166 237.277V237.277Z" fill="#263238"/>
<path d="M158.8 230.611C155.515 230.577 151.709 231.652 149.67 234.125C149.597 234.219 149.744 234.32 149.839 234.273C152.709 232.885 155.733 231.781 158.859 230.98C158.907 230.968 158.949 230.94 158.976 230.902C159.004 230.863 159.015 230.817 159.008 230.772C159.001 230.726 158.976 230.685 158.937 230.655C158.899 230.625 158.85 230.61 158.8 230.611V230.611Z" fill="#263238"/>
<path d="M161.352 231.504C158.059 231.504 154.253 232.552 152.222 235.019C152.141 235.12 152.288 235.22 152.391 235.173C155.257 233.78 158.279 232.674 161.403 231.874C161.451 231.862 161.492 231.834 161.52 231.797C161.547 231.759 161.559 231.713 161.553 231.669C161.546 231.624 161.523 231.582 161.486 231.552C161.449 231.522 161.401 231.505 161.352 231.504V231.504Z" fill="#263238"/>
<path d="M163.89 232.405C160.604 232.405 156.798 233.446 154.76 235.919C154.686 236.013 154.833 236.114 154.928 236.067C157.799 234.679 160.822 233.575 163.948 232.774C163.997 232.762 164.038 232.734 164.066 232.696C164.093 232.658 164.104 232.611 164.097 232.566C164.09 232.52 164.065 232.479 164.027 232.449C163.988 232.42 163.94 232.404 163.89 232.405Z" fill="#263238"/>
<path d="M166.434 233.305C163.141 233.272 159.335 234.347 157.304 236.82C157.223 236.914 157.377 237.015 157.473 236.968C160.342 235.578 163.366 234.474 166.493 233.675C166.541 233.663 166.583 233.635 166.61 233.596C166.638 233.558 166.649 233.512 166.642 233.466C166.634 233.421 166.609 233.379 166.571 233.35C166.533 233.32 166.484 233.304 166.434 233.305V233.305Z" fill="#263238"/>
<path d="M129.914 236.679C126.247 236.679 126.247 241.954 129.914 241.934C133.581 241.914 133.61 236.659 129.914 236.679Z" fill="#263238"/>
<path d="M162.327 222.56C160.663 221.297 158.565 222.56 157.546 223.857C155.849 226.149 154.838 228.809 154.613 231.572C154.613 231.632 154.664 231.659 154.715 231.659C154.728 231.716 154.756 231.769 154.796 231.814C154.836 231.859 154.888 231.895 154.946 231.918C155.004 231.941 155.068 231.951 155.131 231.946C155.194 231.942 155.255 231.924 155.309 231.894C157.641 230.409 160.34 229.078 162.107 226.975C163.112 225.752 163.933 223.736 162.327 222.56ZM158.323 228.971C157.194 229.73 156.028 230.436 154.928 231.236C155.515 229.73 156.021 228.212 156.769 226.76C157.114 226.064 157.511 225.391 157.957 224.744C158.69 223.743 161.887 221.216 162.225 224.489C162.415 226.283 159.665 228.07 158.323 228.971Z" fill="#263238"/>
<path d="M146.429 232.714C149.289 233.104 152.244 232.351 155.053 231.941C155.114 231.926 155.17 231.899 155.218 231.861C155.265 231.823 155.302 231.775 155.325 231.721C155.349 231.668 155.358 231.61 155.353 231.552C155.348 231.495 155.328 231.439 155.295 231.39C155.306 231.382 155.314 231.373 155.32 231.362C155.326 231.351 155.329 231.338 155.329 231.326C155.329 231.314 155.326 231.302 155.32 231.291C155.314 231.279 155.306 231.27 155.295 231.262C153.038 229.418 150.292 228.15 147.331 227.586C145.6 227.284 143.151 227.721 142.931 229.69C142.667 231.544 144.757 232.472 146.429 232.714ZM144.434 231.007C142.234 228.426 146.436 228.205 147.698 228.473C148.516 228.661 149.32 228.899 150.103 229.186C151.707 229.795 153.276 230.479 154.804 231.235C153.41 231.363 152.039 231.592 150.653 231.766C148.996 231.968 145.666 232.425 144.434 231.007V231.007Z" fill="#263238"/>
<path d="M71.7681 90.1423C71.7681 90.1423 109.806 149.44 110.825 153.606C112.387 160.003 120.667 223.178 120.667 223.178L160.267 222.506C160.267 222.506 153.447 166.804 146.986 148.452C142.337 135.234 108.765 91.3923 108.765 91.3923L71.7681 90.1423Z" fill="#37474F"/>
<path d="M156.666 216.969C150.982 216.929 130.838 216.72 123.27 217.365C123.211 217.365 123.218 217.459 123.27 217.466C125.873 217.809 150.975 217.278 156.658 217.11C156.67 217.114 156.683 217.115 156.696 217.114C156.708 217.112 156.72 217.108 156.731 217.102C156.741 217.095 156.75 217.087 156.756 217.077C156.762 217.067 156.766 217.056 156.766 217.044C156.767 217.032 156.765 217.021 156.76 217.01C156.754 217 156.747 216.99 156.737 216.983C156.727 216.976 156.715 216.971 156.703 216.968C156.691 216.966 156.678 216.966 156.666 216.969V216.969Z" fill="#263238"/>
<path d="M78.2579 95.5856C80.7513 99.1673 83.3913 102.675 85.9286 106.23C88.4659 109.785 91.0179 113.34 93.5333 116.888C98.5493 124.056 103.438 131.271 108.2 138.533C110.524 141.899 112.512 145.451 114.14 149.144C115.626 152.838 116.743 156.648 117.477 160.528C118.254 164.419 118.767 168.35 119.244 172.281C119.733 176.461 120.244 180.643 120.777 184.827C121.818 193.388 122.862 201.95 123.908 210.511C124.033 211.559 124.157 212.608 124.275 213.663C124.275 213.817 123.989 213.844 123.967 213.663C122.801 205.162 121.833 196.627 120.777 188.127C120.249 183.884 119.723 179.644 119.2 175.406C118.709 171.461 118.239 167.51 117.572 163.592C116.96 159.725 116.028 155.906 114.785 152.168C113.416 148.298 111.581 144.579 109.315 141.08C104.731 133.829 99.8766 126.706 95.0219 119.576C90.1673 112.446 85.1806 105.256 80.0619 98.2131C79.4313 97.3462 78.7933 96.4793 78.1333 95.6259C78.0819 95.5789 78.2139 95.5184 78.2579 95.5856Z" fill="#263238"/>
<path d="M84.2347 248.795C82.4307 248.694 35.8347 231.397 34.5441 229.757C34.4866 229.661 34.4611 229.551 34.4707 229.441C34.4707 227.97 37.7047 222.835 40.4034 216.089C40.5721 215.658 41.7747 213.656 43.4394 210.961C48.0667 203.576 56.1334 190.855 56.1334 190.855L86.5887 201.943L72.0101 221.935L69.7441 226.773C69.7441 226.773 84.0367 240.314 85.2394 242.229C86.4421 244.145 86.0314 248.889 84.2347 248.795Z" fill="#EB9481"/>
<path d="M84.2347 248.795C82.4307 248.694 35.8347 231.397 34.5441 229.757C34.4866 229.661 34.4611 229.551 34.4707 229.441C34.4707 227.97 37.7047 222.835 40.4034 216.089C40.5721 215.658 41.7747 213.656 43.4394 210.961L72.0394 221.935L69.7734 226.773C69.7734 226.773 84.0661 240.314 85.2687 242.229C86.4714 244.145 86.0314 248.889 84.2347 248.795Z" fill="white"/>
<path d="M84.2349 248.795C82.4309 248.694 35.8349 231.397 34.5443 229.757C34.0456 229.132 36.1283 223.306 40.4109 216.089L69.7443 226.78C69.7443 226.78 84.0369 240.308 85.2469 242.236C86.4569 244.165 86.0316 248.889 84.2349 248.795Z" fill="#A6A6A6"/>
<path d="M84.3081 246.886C76.7621 243.916 46.0061 232.586 38.2988 230.18C38.2328 230.18 38.2181 230.18 38.2988 230.221C45.7128 233.312 76.5641 244.413 84.2788 247.021C84.4255 247.054 84.4695 246.947 84.3081 246.886Z" fill="#263238"/>
<path d="M82.9883 239.676C82.1515 239.339 81.2476 239.165 80.3336 239.165C79.4197 239.165 78.5157 239.339 77.6789 239.676C76.1745 240.279 74.9819 241.391 74.3496 242.78C74.3496 242.821 74.4156 242.854 74.4376 242.814C75.3021 241.526 76.5991 240.529 78.134 239.973C79.669 239.416 81.3593 239.331 82.9516 239.73C82.9639 239.726 82.9745 239.719 82.9813 239.709C82.9881 239.699 82.9906 239.687 82.9883 239.676V239.676Z" fill="#263238"/>
<path d="M72.4059 228.561C69.3772 227.398 65.4026 227.089 62.5059 228.682C62.3959 228.742 62.5059 228.883 62.6012 228.877C65.8303 228.576 69.0851 228.592 72.3106 228.924C72.3602 228.929 72.4101 228.917 72.4509 228.891C72.4917 228.864 72.5207 228.825 72.5324 228.781C72.5441 228.736 72.5377 228.689 72.5144 228.649C72.4911 228.608 72.4525 228.577 72.4059 228.561Z" fill="#263238"/>
<path d="M74.3932 230.268C71.3645 229.105 67.3899 228.796 64.4932 230.389C64.3832 230.449 64.4932 230.59 64.5885 230.584C67.8175 230.28 71.0726 230.296 74.2979 230.631C74.3475 230.636 74.3974 230.624 74.4382 230.598C74.4791 230.571 74.508 230.532 74.5197 230.488C74.5314 230.443 74.525 230.396 74.5017 230.356C74.4784 230.315 74.4399 230.284 74.3932 230.268Z" fill="#263238"/>
<path d="M76.3878 231.975C73.3518 230.812 69.3772 230.503 66.4878 232.096C66.3705 232.156 66.4879 232.297 66.5759 232.29C69.8048 231.987 73.0599 232.003 76.2852 232.338C76.3358 232.345 76.3878 232.335 76.4309 232.31C76.474 232.284 76.505 232.245 76.5179 232.199C76.5308 232.154 76.5246 232.105 76.5005 232.064C76.4764 232.022 76.4362 231.99 76.3878 231.975V231.975Z" fill="#263238"/>
<path d="M78.3752 233.681C75.3392 232.519 71.3718 232.21 68.4752 233.796C68.3578 233.863 68.4751 234.004 68.5631 233.997C71.7921 233.694 75.0473 233.709 78.2725 234.044C78.3231 234.052 78.3751 234.042 78.4182 234.017C78.4613 233.991 78.4923 233.951 78.5052 233.906C78.5181 233.86 78.5119 233.812 78.4878 233.77C78.4637 233.729 78.4235 233.697 78.3752 233.681V233.681Z" fill="#263238"/>
<path d="M43.1389 224.253C39.7143 223.003 37.5876 227.889 41.0269 229.139C44.4663 230.389 46.6003 225.503 43.1389 224.253Z" fill="#263238"/>
<path d="M78.9694 222.311C77.9354 220.571 75.4934 221.001 74.0047 221.868C71.497 223.407 69.474 225.523 68.138 228.003C68.1322 228.014 68.129 228.026 68.1289 228.038C68.1288 228.05 68.1317 228.062 68.1373 228.073C68.1429 228.084 68.1512 228.094 68.1615 228.102C68.1718 228.109 68.1838 228.115 68.1967 228.117C68.1967 228.339 68.358 228.601 68.644 228.548C71.4234 227.963 74.4667 227.66 76.96 226.316C78.39 225.537 79.9447 223.958 78.9694 222.311ZM72.626 226.874C71.2694 227.19 69.9054 227.445 68.5634 227.808C69.6734 226.583 70.8507 225.41 72.0907 224.294C72.7011 223.761 73.3504 223.267 74.034 222.815C75.0974 222.143 79.116 220.9 78.0894 224.052C77.5247 225.792 74.2467 226.498 72.626 226.874V226.874Z" fill="#263238"/>
<path d="M60.0714 226.256C62.5648 227.6 65.6081 227.916 68.3801 228.507C68.6661 228.568 68.8568 228.305 68.8348 228.077C68.8485 228.076 68.8617 228.071 68.8729 228.064C68.8842 228.056 68.8932 228.046 68.8991 228.035C68.905 228.023 68.9076 228.011 68.9066 227.998C68.9056 227.986 68.9011 227.973 68.8934 227.963C67.5595 225.478 65.5364 223.357 63.0268 221.814C61.5601 220.94 59.1034 220.504 58.0621 222.237C57.0208 223.971 58.6121 225.47 60.0714 226.256ZM58.9274 223.984C57.9081 220.833 61.9194 222.083 62.9828 222.761C63.6656 223.214 64.3125 223.71 64.9188 224.247C66.1564 225.365 67.3312 226.54 68.4388 227.768C67.0968 227.405 65.7328 227.143 64.3761 226.827C62.7334 226.424 59.4848 225.752 58.9274 223.984Z" fill="#263238"/>
<path d="M74.3788 220.819L40.2861 208.206C40.2861 208.206 82.5555 151.254 82.8635 147.014C83.1421 143.264 64.5741 110.591 63.8481 101.069C63.0561 90.7874 68.4535 82.8376 74.3935 77.8984L109.557 91.6005C109.557 91.6005 105.846 97.037 100.023 100.068C100.023 100.068 118.056 137.834 117.029 149.446C116.003 161.058 74.3788 220.819 74.3788 220.819Z" fill="#37474F"/>
<path d="M75.8892 214.879C70.9612 212.937 72.4059 213.428 67.4485 211.519C65.0285 210.592 49.1152 204.524 46.6659 204.02C46.6146 204.02 46.5779 204.087 46.6292 204.114C48.7485 205.303 64.7939 211.116 67.2359 212.003C72.2299 213.804 70.8146 213.239 75.8306 214.987C75.8381 214.996 75.848 215.003 75.8594 215.008C75.8708 215.012 75.8834 215.014 75.8958 215.013C75.9083 215.012 75.9202 215.008 75.9305 215.002C75.9409 214.995 75.9492 214.987 75.9548 214.976C75.9604 214.966 75.963 214.955 75.9625 214.943C75.9619 214.932 75.9582 214.921 75.9516 214.911C75.945 214.901 75.9358 214.893 75.9249 214.888C75.914 214.882 75.9017 214.879 75.8892 214.879V214.879Z" fill="#263238"/>
<path d="M105.787 99.3757C102.126 100.158 98.5447 101.223 95.0807 102.561C95.0667 102.565 95.0539 102.572 95.0428 102.581C95.0317 102.59 95.0227 102.601 95.0162 102.613C95.0098 102.625 95.006 102.639 95.0051 102.652C95.0042 102.666 95.0062 102.679 95.011 102.692C95.0158 102.705 95.0234 102.717 95.0332 102.727C95.0429 102.737 95.0548 102.745 95.0681 102.751C95.0814 102.757 95.0958 102.76 95.1106 102.761C95.1253 102.762 95.1401 102.76 95.154 102.756C98.7474 101.795 102.399 100.894 105.934 99.7587C106.205 99.6714 106.066 99.3219 105.787 99.3757Z" fill="#263238"/>
<path d="M101.6 98.072C101.259 98.6289 100.957 99.2058 100.698 99.799C100.445 100.249 100.288 100.74 100.236 101.244C100.236 101.345 100.383 101.365 100.449 101.304C100.817 100.901 101.114 100.448 101.329 99.9603C101.63 99.4294 101.938 98.9052 102.224 98.3609C102.422 97.9644 101.828 97.7091 101.6 98.072Z" fill="#263238"/>
<path d="M102.04 95.0209C102.26 94.5237 102.473 94.0331 102.7 93.5358C102.927 93.0385 103.213 92.5278 103.433 92.0037C103.433 91.923 103.609 92.0037 103.573 92.0641C103.353 92.5614 103.213 93.0856 103.045 93.5963C102.876 94.107 102.685 94.6177 102.502 95.1285C102.157 96.076 101.769 97.0168 101.292 97.9374C101.869 97.9638 102.445 97.872 102.979 97.6686C103.524 97.3491 103.943 96.8781 104.174 96.3246C104.482 95.7736 104.768 95.2091 105.083 94.6581C105.472 94.0623 105.798 93.4346 106.059 92.7832C106.059 92.7025 106.235 92.7832 106.198 92.8437C105.72 94.221 105.094 95.5514 104.328 96.8152C103.998 97.3057 103.741 97.8232 103.14 98.0113C102.489 98.1782 101.808 98.2216 101.138 98.139C101.05 98.139 100.947 98.139 100.977 98.0181C101.277 97.0035 101.632 96.0033 102.04 95.0209V95.0209Z" fill="#263238"/>
<path d="M100.544 101.298C101.798 103.723 102.898 106.143 104.064 108.562C105.23 110.981 106.264 113.32 107.313 115.725C109.41 120.577 111.287 125.523 112.937 130.509C113.751 132.982 114.507 135.475 115.181 137.989C115.924 140.494 116.468 143.045 116.809 145.623C117.104 148.196 116.855 150.797 116.076 153.283C115.267 155.742 114.229 158.132 112.974 160.427C112.204 161.878 111.947 161.683 112.314 160.951C113.363 158.868 116.113 152.558 115.915 147.256C115.754 144.717 115.327 142.199 114.639 139.736C113.998 137.196 113.277 134.676 112.475 132.176C110.913 127.243 109.058 122.412 107.151 117.587C106.081 114.899 104.951 112.211 103.851 109.523C102.751 106.835 101.651 104.362 100.419 101.392C100.383 101.271 100.507 101.224 100.544 101.298Z" fill="#263238"/>
<path d="M74.6647 93.2805C75.2734 93.0721 76.1314 93.4149 76.7474 93.5089C77.5451 93.633 78.3512 93.7071 79.16 93.7307C79.9603 93.7565 80.7615 93.7318 81.558 93.6568C82.3602 93.6378 83.1463 93.4468 83.8534 93.099C85.0134 92.3247 86.0078 91.361 86.7867 90.2565C87.7149 89.1277 88.4813 87.8947 89.0674 86.5873C89.0674 86.5067 89.2214 86.5873 89.192 86.6411C88.9354 87.387 88.7447 88.1397 88.4587 88.8721C88.1425 89.5603 87.7648 90.2234 87.3294 90.8545C86.6233 92.1246 85.5791 93.2109 84.2934 94.0129C82.878 94.7521 81.0594 94.6849 79.4827 94.6245C78.5683 94.5756 77.6589 94.4655 76.762 94.2952C76.1167 94.1675 75.0314 94.0734 74.6207 93.556C74.6014 93.5362 74.587 93.5127 74.5787 93.4873C74.5704 93.4619 74.5682 93.4351 74.5724 93.4088C74.5766 93.3825 74.587 93.3574 74.603 93.3352C74.6189 93.3131 74.64 93.2944 74.6647 93.2805V93.2805Z" fill="#263238"/>
<path d="M50.0176 202.232C55.6203 194.455 61.1203 186.615 66.5176 178.712C71.915 170.809 77.239 162.846 82.4896 154.822C83.7436 152.907 85.1883 150.999 85.995 148.875C86.875 146.57 86.3763 144.332 85.5843 142.075C84.0888 137.955 82.3407 133.917 80.3483 129.979C78.383 126.007 76.2636 122.103 74.181 118.185C72.0983 114.267 69.9203 110.396 68.3143 106.311C66.8476 102.406 66.2536 98.3609 67.3976 94.3155C68.5416 90.2701 71.0056 86.695 73.5796 83.3283C74.2543 82.4413 74.951 81.5609 75.633 80.6403C75.6843 80.5731 75.7943 80.6403 75.743 80.7209C72.905 84.2288 70.1403 87.9449 68.4756 92.0643C67.6248 94.0948 67.149 96.2409 67.0676 98.4147C67.0538 100.621 67.4277 102.815 68.175 104.913C69.5536 108.999 71.7316 112.863 73.763 116.707C75.7943 120.55 77.965 124.529 79.967 128.487C82.0323 132.47 83.8682 136.55 85.467 140.71C86.149 142.558 86.9336 144.494 86.875 146.476C86.8236 148.647 85.6943 150.602 84.521 152.43C79.3876 160.393 74.1296 168.262 68.7763 176.084C63.423 183.907 57.9156 191.729 52.3423 199.47L50.2303 202.393C50.1203 202.514 49.9296 202.373 50.0176 202.232Z" fill="#263238"/>
<path d="M111.507 55.3798C114.683 61.7638 130.721 70.5603 138.23 71.5078C143.627 72.1798 160.039 72.4217 165.664 71.6355C172.264 70.7081 167.219 54.4121 163.325 54.8355C152.618 55.9779 143.525 57.2547 140.665 57.2547C137.174 57.2547 118.291 51.7039 116.017 50.9177C110.444 49.0159 109.711 51.7577 111.507 55.3798Z" fill="#EB9481"/>
<path d="M111.61 57.0799C115.629 62.5298 128.983 71.4405 128.983 71.4405L130.838 67.6773L136.976 55.2319C136.976 55.2319 124.707 51.7039 116.633 50.0911C115.683 49.8929 114.717 49.767 113.744 49.7147C108.589 49.4594 108.141 52.3759 111.61 57.0799Z" fill="#AEB5BB"/>
<path d="M111.61 57.08C115.629 62.5299 128.983 71.4406 128.983 71.4406L130.838 67.6774C125.859 62.3753 118.166 54.3449 113.744 49.7283C108.589 49.4595 108.141 52.376 111.61 57.08Z" fill="#263238"/>
<path d="M126.577 68.9138C127.596 66.6222 132.128 57.3957 133.258 55.4738C133.331 55.3394 133.448 55.3528 133.382 55.4738C131.417 60.0621 129.179 64.5488 126.68 68.9138C126.65 68.9944 126.533 68.9675 126.577 68.9138Z" fill="#263238"/>
<path d="M161.359 55.0033C167.871 54.2238 175.931 52.8865 182.758 55.5409C183.525 55.8166 184.168 56.3208 184.584 56.9723C187.664 58.1147 188.001 59.788 188.001 59.788C190.517 61.6561 190.605 63.4168 190.605 63.4168C190.605 63.4168 194.213 64.7608 193.663 66.9246C193.061 69.3169 188.119 66.9246 184.525 67.1195C176.275 67.5899 164.725 70.3653 162.342 70.7147L161.359 55.0033Z" fill="#EB9481"/>
<path d="M175.505 62.046C177.918 61.8948 180.339 61.8948 182.751 62.046C185.378 62.348 187.976 62.8309 190.524 63.4908C190.541 63.4961 190.559 63.4952 190.575 63.4883C190.59 63.4813 190.603 63.4689 190.608 63.4538C190.614 63.4386 190.613 63.422 190.606 63.4075C190.598 63.393 190.585 63.3819 190.568 63.3765C185.782 61.6556 180.571 61.1721 175.505 61.9787C175.388 61.9653 175.388 62.0527 175.505 62.046Z" fill="#263238"/>
<path d="M173.973 55.0639C177.999 55.252 180.514 55.8434 184.562 56.9589V56.9186C180.104 55.2117 178.278 55.0504 173.951 54.9026C173.812 54.9563 173.819 55.0639 173.973 55.0639Z" fill="#263238"/>
<path d="M174.625 68.262C173.576 68.7122 173.833 69.2162 175.835 69.6396C177.837 70.0629 186.16 70.1906 185.867 72.8517C185.574 75.5128 173.833 75.1768 170.555 74.236C167.277 73.2952 162.342 70.7148 162.342 70.7148C164.666 70.3586 170.122 69.0079 174.625 68.262Z" fill="#EB9481"/>
<path d="M120.227 65.5538C120.175 66.7029 120.058 67.8722 119.882 69.0347C119.882 68.9877 119.882 68.9474 119.933 68.9071C120.175 68.3023 120.417 67.684 120.711 67.0994C120.711 67.0994 120.784 67.0994 120.777 67.0994C120.636 67.74 120.424 68.3659 120.146 68.9676C120.014 69.2565 119.889 69.5388 119.75 69.821C119.662 70.3384 119.559 70.8492 119.449 71.3599C119.229 72.3208 118.239 76.4066 117.983 77.0987C117.939 77.2399 117.748 77.2063 117.763 77.045C117.814 76.2924 118.643 72.0386 118.811 71.0709C119.139 69.2025 119.577 67.3518 120.124 65.5269C120.161 65.4933 120.234 65.5202 120.227 65.5538Z" fill="#263238"/>
<path d="M112.6 96.1097C110.642 97.0303 108.12 98.4617 96.7529 96.4121C96.0196 96.2777 95.3302 96.1164 94.6116 95.9215C83.9562 92.9916 71.1449 81.5071 70.4482 80.694C70.4482 80.694 87.3809 55.541 109.036 47.6316C111.713 46.6572 116.142 48.5388 118.57 50.8841C119.442 51.7241 121.342 57.8998 120.616 62.8994C119.89 67.8991 114.551 95.189 112.6 96.1097Z" fill="#AEB5BB"/>
<path d="M111.075 62.6709C111.157 63.7338 110.994 64.8006 110.598 65.8024C110.505 64.7392 110.668 63.6702 111.075 62.6709V62.6709Z" fill="white"/>
<path d="M103.69 79.8003C103.737 80.3293 103.717 80.8614 103.631 81.3862C103.561 81.915 103.42 82.434 103.213 82.9318C103.163 82.4007 103.182 81.866 103.272 81.3392C103.347 80.8133 103.487 80.297 103.69 79.8003V79.8003Z" fill="white"/>
<path d="M91.1429 66.8508C91.2254 67.916 91.063 68.9851 90.6662 69.9891C90.574 68.9237 90.7367 67.8527 91.1429 66.8508V66.8508Z" fill="white"/>
<path d="M115.907 78.9268C115.954 79.4579 115.934 79.9923 115.849 80.5194C115.778 81.0482 115.638 81.5672 115.431 82.065C115.38 81.5339 115.4 80.9991 115.489 80.4724C115.563 79.9442 115.704 79.4255 115.907 78.9268V78.9268Z" fill="white"/>
<path d="M99.7959 64.6331C100.373 64.5882 100.954 64.6039 101.527 64.6802C102.104 64.7472 102.67 64.8781 103.213 65.0699C102.053 65.1463 100.889 64.9974 99.7959 64.6331V64.6331Z" fill="white"/>
<path d="M85.5547 77.0047C86.7146 76.9298 87.8788 77.0786 88.972 77.4415C87.8118 77.5267 86.6452 77.3776 85.5547 77.0047V77.0047Z" fill="white"/>
<path d="M102.333 90.3976C103.493 90.3213 104.658 90.4701 105.751 90.8344C104.591 90.9183 103.424 90.7693 102.333 90.3976V90.3976Z" fill="white"/>
<path d="M81.1621 85.5325C82.322 85.4576 83.4862 85.6064 84.5794 85.9693C83.4192 86.0532 82.253 85.9042 81.1621 85.5325V85.5325Z" fill="white"/>
<path d="M110.965 50.6287C112.125 50.5538 113.289 50.7026 114.382 51.0655C113.222 51.1405 112.058 50.9917 110.965 50.6287V50.6287Z" fill="white"/>
<path d="M106.821 54.916C106.451 55.3244 106.027 55.69 105.56 56.0047C105.106 56.3267 104.614 56.6016 104.093 56.8245C104.462 56.4187 104.88 56.0534 105.34 55.7359C105.799 55.4126 106.296 55.1376 106.821 54.916V54.916Z" fill="white"/>
<path d="M84.2422 67.0994C83.8669 67.5042 83.4411 67.8673 82.9735 68.1813C82.5237 68.5094 82.031 68.7848 81.5068 69.0011C81.8841 68.598 82.3096 68.2351 82.7755 67.9192C83.2264 67.5925 83.7189 67.3172 84.2422 67.0994V67.0994Z" fill="white"/>
<path d="M112.439 72.5964C112.064 73.0034 111.638 73.3688 111.17 73.6851C110.719 74.0118 110.227 74.2871 109.704 74.5049C110.079 74.098 110.505 73.7326 110.972 73.4163C111.426 73.0929 111.918 72.8178 112.439 72.5964Z" fill="white"/>
<path d="M94.1787 83.1333C93.8036 83.5403 93.3778 83.9056 92.91 84.2219C92.4584 84.5477 91.9661 84.8229 91.4434 85.0418C91.8185 84.6348 92.2443 84.2695 92.712 83.9531C93.1654 83.6297 93.6574 83.3547 94.1787 83.1333Z" fill="white"/>
<path d="M119.435 58.2021C119.059 58.6091 118.634 58.9745 118.166 59.2908C117.711 59.6128 117.22 59.8877 116.699 60.1106C117.074 59.7037 117.5 59.3383 117.968 59.022C118.419 58.6963 118.912 58.421 119.435 58.2021V58.2021Z" fill="white"/>
<path d="M119.053 70.4123C118.609 70.0686 118.211 69.6784 117.865 69.2498C117.508 68.8369 117.208 68.3855 116.971 67.9058C117.416 68.2455 117.815 68.6336 118.159 69.0616C118.509 69.4811 118.809 69.9339 119.053 70.4123V70.4123Z" fill="white"/>
<path d="M78.3532 78.8259C77.9091 78.4821 77.5104 78.092 77.1652 77.6633C76.8122 77.2479 76.5121 76.797 76.2705 76.3193C76.7146 76.6631 77.1133 77.0533 77.4585 77.4819C77.814 77.8957 78.1143 78.3469 78.3532 78.8259V78.8259Z" fill="white"/>
<path d="M114.103 88.8319C113.658 88.4921 113.259 88.104 112.915 87.676C112.564 87.2596 112.264 86.8089 112.021 86.332C112.465 86.6758 112.863 87.066 113.209 87.4946C113.562 87.907 113.863 88.3558 114.103 88.8319Z" fill="white"/>
<path d="M96.1881 60.3055C95.7442 59.9641 95.3455 59.5762 95.0001 59.1497C94.6502 58.7323 94.3503 58.2817 94.1055 57.8057C94.5511 58.1454 94.9501 58.5335 95.2935 58.9615C95.6434 59.3788 95.9433 59.8294 96.1881 60.3055V60.3055Z" fill="white"/>
<path d="M96.5036 94.5305C96.0595 94.1867 95.6608 93.7965 95.3156 93.3679C94.9638 92.9518 94.6637 92.501 94.4209 92.0239C94.8666 92.3636 95.2655 92.7518 95.6089 93.1798C95.9618 93.5976 96.2619 94.0508 96.5036 94.5305V94.5305Z" fill="white"/>
<path d="M99.5465 74.3435C99.1066 73.9978 98.7106 73.6078 98.3659 73.1809C98.0078 72.7687 97.7073 72.3173 97.4712 71.8369C97.913 72.1808 98.3093 72.571 98.6519 72.9995C99.0084 73.4126 99.3088 73.8639 99.5465 74.3435V74.3435Z" fill="white"/>
<path d="M114.602 57.5839C111.837 57.1135 109.241 51.8786 108.911 48.3573C108.911 48.1154 110.202 46.2002 111.676 43.8012C112.57 42.3429 113.516 40.6965 114.272 39.1375C114.426 38.8216 115.328 39.8901 115.328 39.8901L117.293 41.2341L123.783 45.797C122.238 47.4964 120.925 49.3628 119.874 51.3544C119.771 51.5703 119.692 51.7955 119.64 52.0264C119.637 52.0645 119.637 52.1026 119.64 52.1407C119.236 53.4712 117.264 58.0341 114.602 57.5839Z" fill="#EB9481"/>
<path d="M119.64 52.0601C119.637 52.0981 119.637 52.1363 119.64 52.1743C119.255 52.0708 118.88 51.9382 118.518 51.7778C111.412 48.727 114.544 40.0044 114.544 40.0044L117.33 41.2678L123.82 45.8306C122.275 47.53 120.962 49.3964 119.912 51.3881C119.795 51.6026 119.704 51.8279 119.64 52.0601V52.0601Z" fill="#263238"/>
<path d="M131.241 27.2297C131.241 27.2297 134.49 29.1181 134.505 32.4781C134.519 35.8381 133.038 39.1241 132.73 39.2451C132.422 39.3661 131.241 27.2297 131.241 27.2297Z" fill="#263238"/>
<path d="M115.123 28.977C113.172 32.505 113.275 43.6266 115.709 46.4893C119.244 50.6423 126.049 52.0736 130.163 47.9677C134.145 43.9895 133.735 29.5012 130.897 26.7997C126.768 22.808 118.012 23.7555 115.123 28.977Z" fill="#EB9481"/>
<path d="M125.478 37.8809C125.478 37.8809 125.412 37.9212 125.419 37.9481C125.463 38.7074 125.375 39.581 124.634 39.8498C124.634 39.8498 124.634 39.8969 124.634 39.8901C125.551 39.7557 125.654 38.5932 125.478 37.8809Z" fill="#263238"/>
<path d="M124.722 37.108C123.388 37.0408 123.344 39.4869 124.583 39.5474C125.822 39.6079 125.837 37.1618 124.722 37.108Z" fill="#263238"/>
<path d="M130.002 37.854C130.002 37.854 130.068 37.854 130.068 37.9212C130.024 38.6806 130.119 39.5542 130.867 39.8162C130.867 39.8162 130.867 39.8633 130.867 39.8566C129.943 39.7289 129.833 38.5663 130.002 37.854Z" fill="#263238"/>
<path d="M130.758 37.0744C132.085 37.0005 132.151 39.4466 130.919 39.5138C129.687 39.581 129.643 37.1349 130.758 37.0744Z" fill="#263238"/>
<path d="M123.886 35.2466C124.236 35.1552 124.581 35.0476 124.92 34.924C125.305 34.8602 125.656 34.6804 125.917 34.4133C125.981 34.3155 126.007 34.2013 125.992 34.0883C125.978 33.9753 125.923 33.8699 125.837 33.7883C125.638 33.6501 125.403 33.5629 125.155 33.5357C124.908 33.5086 124.657 33.5424 124.429 33.6338C123.934 33.7552 123.505 34.04 123.226 34.4335C123.17 34.5271 123.145 34.6334 123.153 34.7398C123.161 34.8462 123.202 34.9482 123.272 35.0338C123.341 35.1193 123.436 35.1849 123.545 35.2226C123.654 35.2603 123.772 35.2686 123.886 35.2466V35.2466Z" fill="#263238"/>
<path d="M131.667 36.3287C131.31 36.2556 130.958 36.1659 130.611 36.0599C130.224 36.013 129.866 35.8499 129.592 35.5962C129.521 35.5027 129.487 35.3901 129.495 35.2767C129.503 35.1632 129.552 35.0556 129.636 34.9712C129.825 34.823 130.054 34.7243 130.299 34.6852C130.544 34.6462 130.796 34.6684 131.029 34.7495C131.531 34.8447 131.975 35.1084 132.276 35.4887C132.338 35.5787 132.371 35.6835 132.37 35.7903C132.369 35.8972 132.334 36.0014 132.27 36.0904C132.205 36.1794 132.114 36.2494 132.007 36.2917C131.9 36.3339 131.782 36.3468 131.667 36.3287V36.3287Z" fill="#263238"/>
<path d="M123.6 45.0646C123.798 45.246 123.989 45.488 124.289 45.5148C124.597 45.5147 124.902 45.4552 125.184 45.3401C125.184 45.3401 125.235 45.3401 125.184 45.3804C125.064 45.5281 124.902 45.6431 124.716 45.7129C124.53 45.7828 124.327 45.8049 124.128 45.7769C123.96 45.7351 123.81 45.6491 123.695 45.5296C123.58 45.4102 123.507 45.2625 123.483 45.1049C123.477 45.0907 123.477 45.0749 123.484 45.061C123.491 45.0471 123.504 45.0363 123.519 45.031C123.535 45.0257 123.552 45.0262 123.567 45.0325C123.582 45.0388 123.594 45.0503 123.6 45.0646Z" fill="#263238"/>
<path d="M128.396 41.8257C128.396 41.8257 128.433 42.9546 128.396 43.4855C127.269 43.3759 126.131 43.4121 125.015 43.593C124.751 43.6468 124.781 43.4519 125.081 43.3242C125.98 42.9478 126.981 42.8261 127.956 42.9748C128.015 42.8337 127.861 41.2276 127.956 41.2343C128.399 41.3141 128.829 41.4498 129.232 41.6375C129.232 39.2721 128.821 36.9335 128.858 34.5681C128.858 34.4874 128.997 34.474 129.012 34.5681C129.533 37.0704 129.779 39.6143 129.745 42.1617C129.753 42.4506 128.616 41.9332 128.396 41.8257Z" fill="#263238"/>
<path d="M126.746 43.0822C126.454 43.7868 125.911 44.3809 125.206 44.7689C124.099 45.1788 123.739 44.2582 124.854 43.4249C125.439 43.1541 126.093 43.0356 126.746 43.0822Z" fill="#263238"/>
<path d="M125.595 44.5606C125.478 44.648 125.346 44.7183 125.206 44.769C124.187 45.1453 123.783 44.3994 124.605 43.6467C125.162 43.687 125.8 43.8752 125.595 44.5606Z" fill="#FF99BA"/>
<path d="M114.565 38.4857C115.907 38.862 117.447 35.166 117.887 33.7817C118.269 32.5318 118.709 28.5603 118.775 28.2847C118.841 28.0092 124.641 31.7993 128 30.8988C131.359 29.9983 133.639 27.2095 133.691 25.9126C133.742 24.6156 129.54 21.3228 125.91 21.1548C122.28 20.9868 117.359 25.1868 117.359 25.1868C117.954 24.5687 118.493 23.908 118.973 23.2111C118.914 23.0633 116.567 23.9235 116.135 25.4556C116.135 25.4556 116.604 23.527 116.428 23.4934C116.252 23.4598 114.426 25.1062 114.837 26.3561C114.837 26.3561 112.725 28.0294 112.534 29.8639C112.343 31.6985 112.989 38.0422 114.565 38.4857Z" fill="#263238"/>
<path d="M130.406 30.1999C129.407 30.6962 128.331 31.0497 127.216 31.2482C125.964 31.3506 124.704 31.1658 123.549 30.7106C122.386 30.2989 121.305 29.713 120.352 28.9769C119.508 28.3452 118.753 27.5724 117.851 27.0079C117.624 26.8601 117.367 27.1625 117.506 27.3506C119.011 29.2985 121.161 30.75 123.637 31.4901C124.787 31.8337 126.014 31.8979 127.2 31.6765C128.385 31.455 129.487 30.9555 130.398 30.2268C130.398 30.2268 130.42 30.1999 130.406 30.1999Z" fill="#263238"/>
<path d="M115.966 38.1563C115.966 38.1563 113.883 34.2856 112.006 34.9106C110.129 35.5355 111.273 40.8914 113.201 41.8725C113.438 42.0125 113.702 42.1075 113.98 42.1515C114.257 42.1956 114.541 42.1879 114.815 42.1289C115.089 42.0699 115.347 41.9608 115.574 41.8082C115.8 41.6556 115.991 41.4626 116.135 41.2408L115.966 38.1563Z" fill="#EB9481"/>
<path d="M112.38 36.436C112.38 36.436 112.336 36.436 112.38 36.4898C113.715 37.2156 114.257 38.5058 114.58 39.8498C114.519 39.7075 114.425 39.579 114.305 39.4732C114.185 39.3674 114.041 39.2868 113.883 39.2369C113.726 39.1871 113.558 39.1692 113.392 39.1845C113.226 39.1998 113.066 39.248 112.923 39.3256C112.879 39.3256 112.923 39.3996 112.923 39.3996C113.185 39.3622 113.453 39.4003 113.691 39.5086C113.929 39.6169 114.124 39.7901 114.25 40.0044C114.46 40.3632 114.627 40.7417 114.749 41.1333C114.793 41.261 115.035 41.2274 115.013 41.0863C115.328 39.413 114.301 36.8796 112.38 36.436Z" fill="#263238"/>
<path d="M102.216 55.4402C100.75 63.0539 109.755 88.7042 115.526 93.4955C124.114 100.619 139.99 105.303 145.747 106.828C148.255 107.5 155.192 91.325 152.655 90.2565C147.221 87.9919 130.34 83.1535 128.734 81.9439C127.128 80.7343 117.448 67.9192 113.136 60.5407C107.364 50.6085 102.942 51.5896 102.216 55.4402Z" fill="#EB9481"/>
<path d="M148.379 88.832C148.379 88.832 155.874 90.5859 160.707 91.9367C163.405 92.696 167.908 94.3693 169.617 95.7536C172.169 97.8301 181.394 107.991 178.754 110.094C176.363 112.003 169.646 102.346 169.646 102.346C169.646 102.346 177.361 111.539 174.046 113.347C170.731 115.154 164.667 103.32 164.667 103.32C164.667 103.32 172.359 112.93 168.597 114.294C165.752 115.322 159.651 104.886 159.651 104.886C159.651 104.886 166.207 113.185 163.317 114.361C160.135 115.665 153.85 106.351 153.85 106.351C145.989 108.213 141.383 106.149 138.355 104.335C137.643 103.892 148.379 88.832 148.379 88.832Z" fill="#EB9481"/>
<path d="M167.196 99.006C168.15 100.054 169.118 101.116 169.961 102.238C170.804 103.361 171.604 104.516 172.33 105.706C173.313 107.244 174.101 108.881 174.676 110.585C173.415 107.628 170.46 103.562 169.616 102.44C168.773 101.318 167.988 100.155 167.152 99.0329C167.13 99.006 167.174 98.9791 167.196 99.006Z" fill="#263238"/>
<path d="M162.716 101.728C164.344 102.91 167.754 107.305 169.067 110.255C169.126 110.376 169.067 110.37 168.972 110.255C167.945 108.797 163.78 103.152 162.68 101.748C162.658 101.728 162.694 101.707 162.716 101.728Z" fill="#263238"/>
<path d="M158.411 103.448C160.434 105.392 162.032 107.673 163.119 110.168C163.171 110.289 163.068 110.269 162.987 110.168C161.469 107.903 160.296 106.136 158.331 103.508C158.301 103.448 158.367 103.387 158.411 103.448Z" fill="#263238"/>
<path d="M110.4 55.9981C103.705 47.3225 99.7008 50.5347 101.043 59.9561C102.304 68.7661 105.67 79.2627 105.67 79.2627L122.537 71.7632C122.537 71.7632 114.661 61.5555 110.4 55.9981Z" fill="#AEB5BB"/>
<path d="M114.47 59.4116C114.693 59.9016 114.853 60.4135 114.947 60.9371C115.05 61.4623 115.087 61.9967 115.057 62.5297C114.837 62.0371 114.68 61.523 114.588 60.9975C114.479 60.4752 114.439 59.9427 114.47 59.4116V59.4116Z" fill="white"/>
<path d="M104.475 64.6869C105.551 64.2857 106.709 64.1023 107.87 64.1493C107.335 64.3508 106.776 64.4951 106.205 64.5794C105.635 64.6791 105.054 64.7152 104.475 64.6869V64.6869Z" fill="white"/>
<path d="M104.907 51.1934C104.453 52.1755 103.776 53.0575 102.92 53.7806C103.374 52.7985 104.052 51.9164 104.907 51.1934V51.1934Z" fill="white"/>
<path d="M119.2 68.7393C118.978 69.2307 118.695 69.6974 118.357 70.1303C118.028 70.5687 117.644 70.9702 117.213 71.3265C117.667 70.3444 118.345 69.4623 119.2 68.7393V68.7393Z" fill="white"/>
<path d="M107.467 74.0008C106.929 73.7992 106.42 73.5398 105.949 73.228C105.47 72.9269 105.032 72.575 104.644 72.1797C105.715 72.5958 106.678 73.2167 107.467 74.0008V74.0008Z" fill="white"/>
<path d="M112.6 58.6121C113.502 59.7477 114.433 60.8565 115.357 61.9721C115.123 61.4076 114.917 60.8364 114.741 60.2585H114.785C114.969 60.702 115.181 61.1388 115.357 61.6025L115.621 62.2745C115.644 62.3203 115.664 62.3675 115.68 62.4156C116.413 63.2825 117.147 64.1493 117.821 65.0364C118.65 66.0981 119.45 67.1733 120.256 68.2485C121.063 69.3237 121.877 70.661 122.749 71.7429C122.83 71.837 121.283 72.4149 121.114 72.4889C120.946 72.5628 120.857 72.4351 121.019 72.3881C121.18 72.341 122.412 71.6489 122.427 71.6354C121.62 70.5468 120.689 69.5455 119.846 68.4905C119.002 67.4354 118.166 66.3804 117.352 65.3119C115.702 63.1346 114.191 60.8767 112.549 58.6927L112.6 58.6121Z" fill="#263238"/>
<path d="M101.439 66.1921C101.695 66.6491 101.974 67.0993 102.172 67.5697L102.451 68.1544C102.062 66.4811 101.717 64.7944 101.314 63.1211C102.091 65.8091 102.876 68.5576 103.595 71.2859C104.277 73.8933 105.105 76.5275 105.501 79.1886C106.013 78.9831 106.543 78.8189 107.085 78.698C106.541 79.021 105.954 79.2806 105.34 79.4709C104.456 76.7648 103.722 74.0195 103.14 71.2456C102.957 70.4929 102.788 69.7403 102.612 68.9877C102.421 68.5307 102.194 68.0939 101.967 67.6437C101.739 67.1934 101.534 66.6894 101.329 66.2123C101.373 66.1854 101.424 66.1585 101.439 66.1921Z" fill="#263238"/>
<path d="M105.919 76.6686C108.266 75.459 118.071 70.8087 120.263 69.9486C120.417 69.8881 120.498 69.9486 120.344 70.0427C115.69 72.5208 110.892 74.7641 105.971 76.7627C105.912 76.7761 105.853 76.7022 105.919 76.6686Z" fill="#263238"/>
<path d="M374.635 253.338H151.203L183.506 85.4385H406.938L374.635 253.338Z" fill="#AEB5BB"/>
<path d="M259.978 68.0471H186.857L183.506 85.4385H261.76L259.978 68.0471Z" fill="#AEB5BB"/>
<g opacity="0.1">
<path d="M374.635 253.338H151.203L183.506 85.4385H406.938L374.635 253.338Z" fill="black"/>
<path d="M259.978 68.0471H186.857L183.506 85.4385H261.76L259.978 68.0471Z" fill="black"/>
</g>
<path d="M178.967 75.1433C178.478 73.2202 178.478 71.2199 178.967 69.2969C179.456 71.2199 179.456 73.2202 178.967 75.1433V75.1433Z" fill="#263238"/>
<path d="M172.469 76.8637C171.723 76.1542 171.079 75.3591 170.555 74.4983C170.006 73.6554 169.575 72.7522 169.272 71.8103C170.021 72.5156 170.664 73.3088 171.186 74.169C171.734 75.0149 172.165 75.9201 172.469 76.8637V76.8637Z" fill="#263238"/>
<path d="M167.776 81.3326C165.715 80.7585 163.826 79.7584 162.254 78.4094C163.282 78.6833 164.268 79.0762 165.187 79.5787C166.127 80.0619 166.996 80.6512 167.776 81.3326V81.3326Z" fill="#263238"/>
<path d="M166.133 87.3536C164.035 87.8017 161.852 87.8017 159.753 87.3536C161.852 86.9056 164.035 86.9056 166.133 87.3536V87.3536Z" fill="#263238"/>
<path d="M168.04 93.3076C167.263 93.9883 166.395 94.5775 165.459 95.0615C164.539 95.5641 163.553 95.957 162.525 96.2308C163.3 95.5466 164.167 94.957 165.107 94.4769C166.025 93.972 167.011 93.5789 168.04 93.3076V93.3076Z" fill="#263238"/>
<path d="M172.909 97.6016C172.285 99.4927 171.193 101.227 169.719 102.668C170.018 101.725 170.449 100.822 171.003 99.9804C171.525 99.1165 172.166 98.3171 172.909 97.6016V97.6016Z" fill="#263238"/>
<path d="M179.48 99.0869C179.736 100.043 179.859 101.025 179.847 102.01C179.862 102.995 179.739 103.977 179.48 104.933C179.217 103.978 179.094 102.995 179.113 102.01C179.101 101.025 179.224 100.043 179.48 99.0869V99.0869Z" fill="#263238"/>
<path d="M185.978 97.4002C186.724 98.1097 187.368 98.9048 187.892 99.7656C188.443 100.607 188.871 101.511 189.168 102.454C187.693 101.012 186.602 99.2779 185.978 97.3867V97.4002Z" fill="#263238"/>
<path d="M190.663 92.8977C191.692 93.169 192.678 93.5621 193.596 94.067C194.536 94.5471 195.403 95.1367 196.178 95.8209C195.149 95.5496 194.163 95.1565 193.244 94.6516C192.305 94.1715 191.437 93.5819 190.663 92.8977V92.8977Z" fill="#263238"/>
<path d="M192.284 86.8765C194.385 86.4286 196.57 86.4286 198.672 86.8765C196.57 87.3244 194.385 87.3244 192.284 86.8765V86.8765Z" fill="#263238"/>
<path d="M190.407 80.9227C191.183 80.2426 192.05 79.6555 192.988 79.1755C193.904 78.6657 194.891 78.2703 195.921 77.9995C194.348 79.3503 192.456 80.3506 190.392 80.9227H190.407Z" fill="#263238"/>
<path d="M185.53 76.6286C185.832 75.6876 186.26 74.7846 186.806 73.9406C187.33 73.0798 187.973 72.2847 188.72 71.5752C188.424 72.5182 187.995 73.4218 187.444 74.2632C186.92 75.124 186.276 75.9191 185.53 76.6286V76.6286Z" fill="#263238"/>
<path d="M374.305 253.338H150.396L118.599 91.5334H342.515L374.305 253.338Z" fill="#AEB5BB"/>
<path d="M196.193 190.445C201.332 190.445 205.499 186.627 205.499 181.918C205.499 177.208 201.332 173.39 196.193 173.39C191.053 173.39 186.887 177.208 186.887 181.918C186.887 186.627 191.053 190.445 196.193 190.445Z" fill="#263238"/>
<path d="M269.761 190.445C274.9 190.445 279.067 186.627 279.067 181.918C279.067 177.208 274.9 173.39 269.761 173.39C264.621 173.39 260.455 177.208 260.455 181.918C260.455 186.627 264.621 190.445 269.761 190.445Z" fill="#263238"/>
<path d="M246.345 191.809L245.832 190.916C245.788 190.835 240.977 182.69 231.305 182.69C222.505 182.69 220.305 190.358 220.246 190.687L219.982 191.661L217.848 191.191L218.105 190.21C218.105 190.116 220.73 180.674 231.305 180.674C242.305 180.674 247.563 189.598 247.783 189.981L248.296 190.869L246.345 191.809Z" fill="#263238"/>
<path d="M359.521 181.266L359.367 180.594C359.843 180.5 360.313 180.399 360.782 180.285L360.965 180.957C360.467 181.071 360.005 181.172 359.521 181.266Z" fill="#263238"/>
<path d="M363.803 180.184L363.569 179.552C364.485 179.263 365.402 178.947 366.289 178.604L366.575 179.223C365.673 179.572 364.742 179.895 363.803 180.184ZM369.267 178.04L368.937 177.449C369.795 177.039 370.653 176.595 371.467 176.105L371.848 176.676C371.012 177.207 370.139 177.657 369.267 178.04ZM374.312 175.197L373.879 174.653C374.671 174.122 375.434 173.564 376.153 172.993L376.637 173.497C375.867 174.109 375.133 174.68 374.305 175.224L374.312 175.197ZM378.785 171.622L378.25 171.159C378.925 170.487 379.563 169.815 380.149 169.143L380.729 169.553C380.12 170.292 379.467 170.984 378.8 171.649L378.785 171.622ZM382.415 167.322L381.792 166.965C382.299 166.215 382.75 165.433 383.141 164.627L383.816 164.902C383.401 165.743 382.931 166.56 382.408 167.348L382.415 167.322ZM384.843 162.335L384.109 162.147C384.377 161.304 384.576 160.444 384.703 159.573L385.437 159.661C385.315 160.574 385.114 161.478 384.835 162.362L384.843 162.335ZM385.657 156.959H384.923V156.764C384.923 155.951 384.872 155.125 384.784 154.312L385.517 154.244C385.614 155.082 385.663 155.923 385.664 156.764L385.657 156.959ZM384.337 151.698C384.139 150.831 383.895 149.974 383.603 149.131L384.337 148.929C384.637 149.802 384.894 150.69 385.07 151.556L384.337 151.698ZM382.599 146.637C382.247 145.844 381.865 145.031 381.396 144.211L382.056 143.909C382.503 144.742 382.914 145.576 383.273 146.382L382.599 146.637ZM380.032 141.846C379.577 141.114 379.079 140.341 378.565 139.548L379.189 139.192C379.724 139.991 380.23 140.771 380.655 141.517L380.032 141.846ZM376.967 137.283C376.431 136.544 375.889 135.798 375.331 135.052L375.94 134.676C376.497 135.422 377.04 136.168 377.575 136.92L376.967 137.283ZM373.667 132.834C373.117 132.095 372.559 131.349 372.017 130.61L372.625 130.234C373.168 130.973 373.718 131.719 374.268 132.451L373.667 132.834ZM370.389 128.359C369.853 127.606 369.333 126.84 368.819 126.074L369.443 125.725C369.956 126.491 370.477 127.243 371.005 127.996L370.389 128.359ZM367.331 123.742C366.832 122.929 366.37 122.123 365.952 121.35L366.612 121.048C367.023 121.814 367.485 122.607 367.969 123.413L367.331 123.742ZM364.727 118.904C364.339 118.064 363.994 117.211 363.671 116.377L364.405 116.162C364.713 116.975 365.057 117.815 365.439 118.642L364.727 118.904ZM362.821 113.777C362.579 112.903 362.366 112.009 362.205 111.089L362.938 110.981C363.099 111.841 363.297 112.715 363.539 113.575L362.821 113.777ZM361.838 108.401C361.765 107.574 361.728 106.741 361.728 105.907V105.686H362.461V105.901C362.461 106.714 362.461 107.534 362.571 108.34L361.838 108.401ZM362.571 103.025L361.838 102.957C361.838 102.776 361.875 102.588 361.897 102.393C361.985 101.674 362.095 100.955 362.227 100.269L362.96 100.384C362.835 101.056 362.725 101.761 362.637 102.467C362.667 102.675 362.667 102.857 362.608 103.045L362.571 103.025ZM363.591 97.7964L362.857 97.615C363.129 96.7279 363.444 95.8611 363.796 95.0345L364.478 95.2764C364.145 96.1085 363.861 96.9564 363.627 97.8166L363.591 97.7964ZM400.133 93.8787C399.722 93.8787 399.297 93.8249 398.879 93.7711C398.307 93.6972 397.735 93.6099 397.17 93.5091L397.317 92.8371C397.859 92.9311 398.424 93.0185 398.981 93.0924C399.377 93.1395 399.781 93.1731 400.169 93.1932L400.133 93.8787ZM403.147 93.6703L402.993 92.9983C403.913 92.8242 404.795 92.5108 405.603 92.071L405.985 92.6422C405.121 93.132 404.174 93.4863 403.183 93.6905L403.147 93.6703ZM365.703 92.8707L365.05 92.5548C365.517 91.7534 366.034 90.9771 366.597 90.2297L367.199 90.6127C366.663 91.3446 366.175 92.1053 365.739 92.8908L365.703 92.8707ZM394.303 92.8303C393.356 92.5551 392.426 92.2344 391.516 91.8694L391.817 91.2511C392.698 91.6101 393.602 91.922 394.523 92.1852L394.303 92.8303ZM408.236 90.7337L407.627 90.3574C408.15 89.6632 408.459 88.8532 408.522 88.0121L409.255 88.0591C409.193 89.0232 408.849 89.954 408.258 90.7539L408.236 90.7337ZM388.876 90.6329C388.018 90.1758 387.188 89.6755 386.39 89.1343L386.823 88.5967C387.599 89.1215 388.407 89.6061 389.243 90.0483L388.876 90.6329ZM369.003 88.5363L368.46 88.086C369.124 87.4093 369.832 86.7697 370.579 86.1708L371.063 86.6748C370.344 87.2647 369.663 87.893 369.025 88.5564L369.003 88.5363ZM384.102 87.4006C383.372 86.784 382.679 86.1312 382.027 85.4451L382.577 85.0015C383.211 85.668 383.885 86.3029 384.593 86.9033L384.102 87.4006ZM407.972 85.5795C407.552 84.8115 406.971 84.1266 406.263 83.5635L406.747 83.0595C407.527 83.6771 408.167 84.4281 408.632 85.2703L407.972 85.5795ZM373.344 85.0486L372.926 84.4975C373.747 83.9843 374.596 83.511 375.471 83.0796L375.815 83.671C374.973 84.0976 374.155 84.5641 373.366 85.0687L373.344 85.0486ZM380.193 83.3014C379.915 82.9385 379.643 82.5689 379.387 82.1859L378.433 82.5286L378.155 81.9103L378.998 81.6012C378.866 81.3996 378.734 81.198 378.609 80.9964L379.247 80.6671C379.394 80.9023 379.541 81.1375 379.695 81.3391C380.105 81.2047 380.523 81.0771 380.949 80.9561L381.161 81.6281C380.802 81.7289 380.428 81.8364 380.091 81.9507C380.318 82.2799 380.553 82.6227 380.824 82.9116L380.193 83.3014ZM403.902 82.1455C403.192 81.8215 402.457 81.5474 401.702 81.3257L401.218 81.1846L401.431 80.5126L401.929 80.6604C402.715 80.8899 403.48 81.1752 404.217 81.5139L403.902 82.1455ZM383.97 80.9427L383.816 80.2707C384.762 80.0758 385.745 79.9145 386.749 79.7868L386.859 80.4588C385.891 80.5999 384.931 80.7679 383.992 80.9628L383.97 80.9427ZM398.417 80.5798C397.5 80.4319 396.532 80.3177 395.542 80.2371L395.601 79.5651C396.62 79.6457 397.61 79.7599 398.534 79.9145L398.417 80.5798ZM389.727 80.19L389.675 79.518C390.548 79.471 391.421 79.4441 392.286 79.4441H392.645V80.1161H392.293C391.465 80.1363 390.599 80.1564 389.749 80.2102L389.727 80.19ZM377.333 78.5839C376.937 77.7641 376.6 76.9107 376.27 76.0438L377.003 75.8355C377.311 76.6822 377.656 77.5155 378.037 78.3151L377.333 78.5839ZM375.478 73.423C375.258 72.5561 375.075 71.6556 374.935 70.735L375.669 70.6409C375.808 71.5279 375.984 72.4083 376.197 73.2617L375.478 73.423ZM374.657 68.047C374.62 67.4422 374.598 66.8239 374.598 66.2057C374.598 65.9167 374.598 65.6211 374.598 65.3321H375.331C375.331 65.6211 375.331 65.9033 375.331 66.1923C375.331 66.7971 375.331 67.4086 375.383 67.9932L374.657 68.047ZM375.529 62.671L374.796 62.6038C374.899 61.7167 375.038 60.8095 375.207 59.9158L375.94 60.03C375.742 60.9238 375.603 61.7839 375.507 62.6844L375.529 62.671ZM376.534 57.4227L375.801 57.2614C376.035 56.3945 376.307 55.5209 376.607 54.6473L377.341 54.8556C377.011 55.7359 376.739 56.5894 376.512 57.4361L376.534 57.4227ZM378.294 52.3356L377.612 52.0937C377.971 51.2537 378.345 50.4137 378.793 49.6006L379.453 49.8963C379.013 50.7027 378.624 51.5225 378.272 52.3759L378.294 52.3356ZM380.817 47.5443L380.179 47.2015C380.677 46.4287 381.213 45.6559 381.77 44.9167L382.371 45.2998C381.799 46.039 381.279 46.7916 380.795 47.5577L380.817 47.5443ZM384.124 43.1695L383.552 42.7462C384.168 42.0742 384.828 41.3619 385.51 40.7302L386.038 41.1939C385.349 41.8255 384.703 42.4975 384.102 43.183L384.124 43.1695ZM388.113 39.2988L387.622 38.8015C388.355 38.2035 389.089 37.6121 389.873 37.0409L390.328 37.5718C389.543 38.143 388.795 38.7276 388.091 39.3123L388.113 39.2988ZM392.667 35.9791L392.249 35.4214C393.049 34.9174 393.885 34.4201 394.735 33.9497L395.109 34.5209C394.259 34.998 393.467 35.4886 392.645 35.9926L392.667 35.9791ZM397.647 33.2038L397.302 32.6124C398.167 32.1891 399.062 31.7859 399.957 31.4095L400.265 32.0211C399.333 32.4041 398.475 32.8073 397.625 33.2172L397.647 33.2038ZM402.949 30.9727L402.677 30.3411C403.601 30.0118 404.533 29.6691 405.457 29.4204L405.691 30.0924C404.76 30.3478 403.836 30.6569 402.927 30.9862L402.949 30.9727Z" fill="#263238"/>
<path d="M408.603 29.2726L408.419 28.6006C409.329 28.3856 409.886 28.2915 409.886 28.2915L410.018 28.9635C410.018 28.9635 409.49 29.0643 408.603 29.2726Z" fill="#263238"/>
<path d="M421.568 24.9317C419.698 19.6229 407.173 21.5313 409.615 28.4731C412.057 35.4149 423.438 30.2472 421.568 24.9317Z" fill="#263238"/>
<path d="M402.802 22.808C402.897 20.4762 406.432 18.682 411.433 19.5085C416.434 20.3351 421.135 23.4263 421.135 23.4263C421.135 23.4263 416.2 26.168 411.147 26.672C406.094 27.176 402.706 25.1332 402.802 22.808Z" fill="#EBEBEB"/>
<path d="M421.135 23.4128C418.539 23.4128 415.951 23.3456 413.362 23.2717C410.774 23.1978 408.178 23.0768 405.589 22.8887C408.185 22.8887 410.781 22.9491 413.37 23.0231C415.958 23.097 418.554 23.218 421.135 23.4128Z" fill="#263238"/>
<path d="M407.825 20.7314C409.299 21.3775 410.689 22.1732 411.969 23.1036C411.231 22.7865 410.516 22.4274 409.827 22.0284C409.133 21.6322 408.464 21.1991 407.825 20.7314V20.7314Z" fill="#263238"/>
<path d="M414.623 23.1912C413.297 24.1764 411.859 25.028 410.333 25.7313C411.667 24.7449 413.113 23.8932 414.645 23.1912H414.623Z" fill="#263238"/>
<path d="M415.379 21.8806C416.119 22.2062 416.767 22.6847 417.271 23.2784C416.901 23.1183 416.554 22.9175 416.237 22.6803C415.919 22.4446 415.631 22.1763 415.379 21.8806V21.8806Z" fill="#263238"/>
<path d="M407.569 36.6177C409.131 38.459 413.142 38.0155 416.669 34.6689C420.197 31.3223 422.067 26.2891 422.067 26.2891C422.067 26.2891 416.288 26.6923 411.881 28.9771C407.473 31.2619 405.999 34.7697 407.569 36.6177Z" fill="#EBEBEB"/>
<path d="M422.067 26.2891C419.955 27.6331 417.901 29.1249 415.841 30.5697C413.78 32.0145 411.763 33.5063 409.791 35.0452C411.903 33.7012 413.956 32.2161 416.009 30.7713C418.063 29.3265 420.065 27.8347 422.067 26.2891Z" fill="#263238"/>
<path d="M412.959 35.576C413.351 34.9233 413.701 34.2501 414.008 33.56C414.32 32.868 414.584 32.1588 414.8 31.4365C414.406 32.0887 414.056 32.7619 413.751 33.4525C413.442 34.1456 413.177 34.8546 412.959 35.576Z" fill="#263238"/>
<path d="M416.933 29.9583C415.217 29.874 413.496 29.9576 411.8 30.2074C412.655 30.2546 413.512 30.2546 414.366 30.2074C415.226 30.1689 416.083 30.0857 416.933 29.9583V29.9583Z" fill="#263238"/>
<path d="M418.349 30.6234C418.545 30.2916 418.697 29.9397 418.803 29.5751C418.912 29.2132 418.976 28.8413 418.994 28.4663C418.604 29.1316 418.383 29.869 418.349 30.6234V30.6234Z" fill="#263238"/>
<path d="M421.568 24.9315C421.154 25.0547 420.709 25.0626 420.29 24.954C419.871 24.8455 419.497 24.6254 419.214 24.3217C418.932 24.018 418.754 23.6444 418.703 23.248C418.653 22.8517 418.732 22.4506 418.93 22.0954C419.129 21.7402 419.438 21.4469 419.818 21.2528C420.198 21.0586 420.633 20.9723 421.067 21.0047C421.501 21.0371 421.915 21.1868 422.256 21.4349C422.597 21.6829 422.85 22.0181 422.983 22.3981C423.161 22.906 423.112 23.4579 422.847 23.9327C422.582 24.4076 422.122 24.7667 421.568 24.9315Z" fill="#455A64"/>
<path d="M422.917 28.7686C422.503 28.8913 422.059 28.8988 421.641 28.7902C421.222 28.6815 420.848 28.4616 420.566 28.1582C420.284 27.8548 420.106 27.4815 420.055 27.0856C420.004 26.6896 420.083 26.2888 420.281 25.9337C420.479 25.5787 420.787 25.2853 421.167 25.0908C421.546 24.8963 421.98 24.8093 422.414 24.8408C422.848 24.8723 423.262 25.021 423.603 25.268C423.945 25.515 424.198 25.8492 424.333 26.2284C424.422 26.4803 424.456 26.7459 424.433 27.01C424.41 27.274 424.331 27.5313 424.199 27.7672C424.068 28.0031 423.887 28.213 423.667 28.3848C423.447 28.5566 423.192 28.687 422.917 28.7686V28.7686Z" fill="#455A64"/>
<path d="M182.494 27.055C182.143 30.1416 180.862 33.078 178.796 35.5366C176.729 37.9951 173.958 39.879 170.791 40.9782C167.623 42.0773 164.185 42.3483 160.86 41.7611C157.535 41.1738 154.453 39.7514 151.958 37.6525L142.813 38.8822L147.389 31.6381C146.343 29.2809 145.897 26.7363 146.084 24.1974C146.271 21.6585 147.088 19.1921 148.471 16.9856C149.854 14.779 151.768 12.8904 154.067 11.4632C156.366 10.036 158.99 9.10763 161.739 8.74871C164.489 8.38979 167.291 8.60973 169.933 9.39182C172.576 10.1739 174.989 11.4976 176.99 13.2623C178.991 15.027 180.526 17.1863 181.48 19.5763C182.434 21.9662 182.781 24.5239 182.494 27.055V27.055Z" fill="white"/>
<path d="M182.494 27.0551C182.15 30.1401 180.881 33.0777 178.827 35.5425C177.824 36.7891 176.614 37.8842 175.241 38.7882C173.899 39.7261 172.417 40.4841 170.841 41.0394C169.264 41.6084 167.608 41.9704 165.921 42.1146C165.077 42.184 164.229 42.1997 163.383 42.1617C162.534 42.1417 161.688 42.0608 160.853 41.9198C157.483 41.3515 154.352 39.9344 151.811 37.8273L152.024 37.8878L142.894 39.1713L142.227 39.2654L142.564 38.7278L147.111 31.4702V31.7591C146.038 29.3585 145.582 26.7639 145.777 24.176C145.973 21.588 146.816 19.076 148.24 16.834C149.662 14.5991 151.618 12.6877 153.96 11.243C156.298 9.81736 158.959 8.89542 161.741 8.54628C164.524 8.19713 167.357 8.42984 170.027 9.22696C172.669 10.0507 175.077 11.4053 177.075 13.1918C179.067 14.9737 180.591 17.1482 181.53 19.5503C182.469 21.9524 182.799 24.5189 182.494 27.0551ZM182.494 27.0551C182.79 24.5314 182.45 21.979 181.499 19.5951C180.547 17.2111 179.011 15.0594 177.008 13.3059C175.006 11.5525 172.59 10.2442 169.948 9.48222C167.306 8.72022 164.508 8.52482 161.77 8.91112C159.06 9.27872 156.478 10.2122 154.224 11.6394C151.989 13.0779 150.123 14.9444 148.753 17.1095C147.405 19.2795 146.61 21.7009 146.429 24.1924C146.25 26.7007 146.691 29.2136 147.719 31.5441L147.785 31.6919L147.697 31.833L143.092 39.0638L142.769 38.6202L151.921 37.4442H152.046L152.134 37.5182C154.58 39.6047 157.612 41.0264 160.89 41.6241C161.707 41.7766 162.536 41.8687 163.369 41.8996C164.201 41.9533 165.037 41.9533 165.869 41.8996C167.539 41.7763 169.182 41.4439 170.753 40.9118C172.328 40.3864 173.81 39.6529 175.153 38.7345C176.52 37.8378 177.732 36.7571 178.747 35.529C180.827 33.0762 182.124 30.1429 182.494 27.0551Z" fill="#263238"/>
<path d="M155.382 33.1233C155.368 32.9009 155.404 32.6781 155.488 32.4689C155.572 32.2597 155.702 32.0685 155.869 31.9072C156.037 31.7459 156.239 31.6179 156.463 31.5311C156.687 31.4444 156.929 31.4008 157.172 31.403C157.67 31.403 158.147 31.5843 158.499 31.9069C158.851 32.2295 159.049 32.6671 159.049 33.1233C159.049 33.5796 158.851 34.0172 158.499 34.3398C158.147 34.6624 157.67 34.8437 157.172 34.8437C156.929 34.8459 156.687 34.8023 156.463 34.7155C156.239 34.6288 156.037 34.5008 155.869 34.3395C155.702 34.1782 155.572 33.987 155.488 33.7778C155.404 33.5686 155.368 33.3458 155.382 33.1233V33.1233ZM156.116 29.1518L155.69 15.8193H158.624L158.198 29.1518H156.116Z" fill="#AEB5BB"/>
<path d="M162.356 33.1233C162.342 32.9014 162.378 32.6792 162.462 32.4705C162.545 32.2617 162.674 32.0709 162.841 31.9096C163.008 31.7484 163.209 31.6203 163.432 31.5332C163.656 31.446 163.896 31.4017 164.138 31.403C164.636 31.403 165.114 31.5843 165.466 31.9069C165.818 32.2295 166.016 32.6671 166.016 33.1233C166.016 33.5796 165.818 34.0172 165.466 34.3398C165.114 34.6624 164.636 34.8437 164.138 34.8437C163.896 34.845 163.656 34.8007 163.432 34.7135C163.209 34.6264 163.008 34.4983 162.841 34.337C162.674 34.1758 162.545 33.9849 162.462 33.7762C162.378 33.5674 162.342 33.3452 162.356 33.1233V33.1233ZM163.09 29.1518L162.686 15.8193H165.62L165.194 29.1518H163.09Z" fill="#AEB5BB"/>
<path d="M169.323 33.1233C169.309 32.9009 169.345 32.6781 169.429 32.4689C169.513 32.2597 169.643 32.0685 169.81 31.9072C169.978 31.7459 170.18 31.6179 170.404 31.5311C170.628 31.4444 170.869 31.4008 171.113 31.403C171.611 31.403 172.088 31.5843 172.44 31.9069C172.792 32.2295 172.99 32.6671 172.99 33.1233C172.99 33.5796 172.792 34.0172 172.44 34.3398C172.088 34.6624 171.611 34.8437 171.113 34.8437C170.869 34.8459 170.628 34.8023 170.404 34.7155C170.18 34.6288 169.978 34.5008 169.81 34.3395C169.643 34.1782 169.513 33.987 169.429 33.7778C169.345 33.5686 169.309 33.3458 169.323 33.1233ZM170.057 29.1518L169.631 15.8193H172.565L172.147 29.1518H170.057Z" fill="#AEB5BB"/>
</svg>
