<svg width="14" height="14" viewBox="0 0 14 14" fill="none" xmlns="http://www.w3.org/2000/svg">
<path d="M0 2C0 1.46957 0.210714 0.960859 0.585786 0.585786C0.960859 0.210714 1.46957 0 2 0H3V3.5C3 3.89782 3.15804 4.27936 3.43934 4.56066C3.72064 4.84196 4.10218 5 4.5 5H8.5C8.89782 5 9.27936 4.84196 9.56066 4.56066C9.84196 4.27936 10 3.89782 10 3.5V0H10.379C10.9094 0.000113275 11.418 0.210901 11.793 0.586L13.414 2.207C13.7891 2.58199 13.9999 3.09061 14 3.621V12C14 12.5304 13.7893 13.0391 13.4142 13.4142C13.0391 13.7893 12.5304 14 12 14V8.5C12 8.10218 11.842 7.72064 11.5607 7.43934C11.2794 7.15804 10.8978 7 10.5 7H3.5C3.10218 7 2.72064 7.15804 2.43934 7.43934C2.15804 7.72064 2 8.10218 2 8.5V14C1.46957 14 0.960859 13.7893 0.585786 13.4142C0.210714 13.0391 0 12.5304 0 12V2ZM9 0H4V3.5C4 3.63261 4.05268 3.75979 4.14645 3.85355C4.24021 3.94732 4.36739 4 4.5 4H8.5C8.63261 4 8.75979 3.94732 8.85355 3.85355C8.94732 3.75979 9 3.63261 9 3.5V0ZM11 8.5V14H3V8.5C3 8.36739 3.05268 8.24021 3.14645 8.14645C3.24021 8.05268 3.36739 8 3.5 8H10.5C10.6326 8 10.7598 8.05268 10.8536 8.14645C10.9473 8.24021 11 8.36739 11 8.5Z" fill="#FAFAFA"/>
</svg>
