<svg width="18" height="14" viewBox="0 0 18 14" fill="none" xmlns="http://www.w3.org/2000/svg">
<path d="M15.5625 0.125H2.4375C1.85753 0.12562 1.30149 0.356288 0.891389 0.766389C0.481288 1.17649 0.25062 1.73253 0.25 2.3125V11.6875C0.25062 12.2675 0.481288 12.8235 0.891389 13.2336C1.30149 13.6437 1.85753 13.8744 2.4375 13.875H15.5625C16.1425 13.8744 16.6985 13.6437 17.1086 13.2336C17.5187 12.8235 17.7494 12.2675 17.75 11.6875V2.3125C17.7494 1.73253 17.5187 1.17649 17.1086 0.766389C16.6985 0.356288 16.1425 0.12562 15.5625 0.125ZM15.0086 3.74336L9.38359 8.11836C9.27391 8.20363 9.13893 8.24992 9 8.24992C8.86107 8.24992 8.72609 8.20363 8.61641 8.11836L2.99141 3.74336C2.92532 3.69345 2.86981 3.63091 2.8281 3.55936C2.78639 3.48781 2.75932 3.40869 2.74846 3.32659C2.73759 3.24449 2.74315 3.16104 2.76482 3.08111C2.78648 3.00118 2.82381 2.92635 2.87465 2.86097C2.92548 2.79559 2.9888 2.74096 3.06093 2.70027C3.13306 2.65957 3.21255 2.63362 3.2948 2.62391C3.37704 2.6142 3.4604 2.62094 3.54002 2.64372C3.61964 2.66651 3.69394 2.70489 3.75859 2.75664L9 6.8332L14.2414 2.75664C14.3725 2.65766 14.5372 2.61425 14.7 2.6358C14.8629 2.65734 15.0107 2.74211 15.1115 2.87177C15.2123 3.00142 15.258 3.16555 15.2387 3.32866C15.2195 3.49176 15.1368 3.64073 15.0086 3.74336Z" fill="#FAFAFA"/>
</svg>
