<svg width="20" height="12" viewBox="0 0 20 12" fill="none" xmlns="http://www.w3.org/2000/svg">
<path d="M9.99984 11C14.6023 11 18.3332 6 18.3332 6C18.3332 6 14.6023 1 9.99984 1C5.39734 1 1.6665 6 1.6665 6C1.6665 6 5.39734 11 9.99984 11Z" stroke="#858585" stroke-width="1.66667" stroke-linejoin="round"/>
<path d="M9.99984 8.08341C10.5524 8.08341 11.0823 7.86392 11.473 7.47322C11.8637 7.08252 12.0832 6.55262 12.0832 6.00008C12.0832 5.44755 11.8637 4.91764 11.473 4.52694C11.0823 4.13624 10.5524 3.91675 9.99984 3.91675C9.4473 3.91675 8.9174 4.13624 8.5267 4.52694C8.136 4.91764 7.9165 5.44755 7.9165 6.00008C7.9165 6.55262 8.136 7.08252 8.5267 7.47322C8.9174 7.86392 9.4473 8.08341 9.99984 8.08341Z" stroke="#858585" stroke-width="1.66667" stroke-linejoin="round"/>
</svg>
