<svg width="17" height="17" viewBox="0 0 17 17" fill="none" xmlns="http://www.w3.org/2000/svg">
<path d="M16.8333 15.7916V6.93742C16.8333 6.7757 16.7956 6.61621 16.7233 6.47157C16.651 6.32693 16.546 6.20111 16.4166 6.10408L9.12496 0.635335C8.94465 0.500104 8.72535 0.427002 8.49996 0.427002C8.27458 0.427002 8.05527 0.500104 7.87496 0.635335L0.583293 6.10408C0.453922 6.20111 0.348918 6.32693 0.276598 6.47157C0.204277 6.61621 0.166626 6.7757 0.166626 6.93742V15.7916C0.166626 16.0679 0.276373 16.3328 0.471723 16.5282C0.667074 16.7235 0.932026 16.8333 1.20829 16.8333H15.7916C16.0679 16.8333 16.3328 16.7235 16.5282 16.5282C16.7236 16.3328 16.8333 16.0679 16.8333 15.7916Z" fill="#4D4D4D"/>
</svg>
