<svg width="12" height="16" viewBox="0 0 12 16" fill="none" xmlns="http://www.w3.org/2000/svg">
<path d="M5 6.5C5 6.36739 5.05268 6.24021 5.14645 6.14645C5.24021 6.05268 5.36739 6 5.5 6H9C9.13261 6 9.25979 6.05268 9.35355 6.14645C9.44732 6.24021 9.5 6.36739 9.5 6.5C9.5 6.63261 9.44732 6.75979 9.35355 6.85355C9.25979 6.94732 9.13261 7 9 7H5.5C5.36739 7 5.24021 6.94732 5.14645 6.85355C5.05268 6.75979 5 6.63261 5 6.5ZM5 9.5C5 9.36739 5.05268 9.24021 5.14645 9.14645C5.24021 9.05268 5.36739 9 5.5 9H9C9.13261 9 9.25979 9.05268 9.35355 9.14645C9.44732 9.24021 9.5 9.36739 9.5 9.5C9.5 9.63261 9.44732 9.75979 9.35355 9.85355C9.25979 9.94732 9.13261 10 9 10H5.5C5.36739 10 5.24021 9.94732 5.14645 9.85355C5.05268 9.75979 5 9.63261 5 9.5ZM5 12.5C5 12.3674 5.05268 12.2402 5.14645 12.1464C5.24021 12.0527 5.36739 12 5.5 12H9C9.13261 12 9.25979 12.0527 9.35355 12.1464C9.44732 12.2402 9.5 12.3674 9.5 12.5C9.5 12.6326 9.44732 12.7598 9.35355 12.8536C9.25979 12.9473 9.13261 13 9 13H5.5C5.36739 13 5.24021 12.9473 5.14645 12.8536C5.05268 12.7598 5 12.6326 5 12.5ZM4 6.5C4 6.69891 3.92098 6.88968 3.78033 7.03033C3.63968 7.17098 3.44891 7.25 3.25 7.25C3.05109 7.25 2.86032 7.17098 2.71967 7.03033C2.57902 6.88968 2.5 6.69891 2.5 6.5C2.5 6.30109 2.57902 6.11032 2.71967 5.96967C2.86032 5.82902 3.05109 5.75 3.25 5.75C3.44891 5.75 3.63968 5.82902 3.78033 5.96967C3.92098 6.11032 4 6.30109 4 6.5ZM4 9.5C4 9.69891 3.92098 9.88968 3.78033 10.0303C3.63968 10.171 3.44891 10.25 3.25 10.25C3.05109 10.25 2.86032 10.171 2.71967 10.0303C2.57902 9.88968 2.5 9.69891 2.5 9.5C2.5 9.30109 2.57902 9.11032 2.71967 8.96967C2.86032 8.82902 3.05109 8.75 3.25 8.75C3.44891 8.75 3.63968 8.82902 3.78033 8.96967C3.92098 9.11032 4 9.30109 4 9.5ZM3.25 13.25C3.44891 13.25 3.63968 13.171 3.78033 13.0303C3.92098 12.8897 4 12.6989 4 12.5C4 12.3011 3.92098 12.1103 3.78033 11.9697C3.63968 11.829 3.44891 11.75 3.25 11.75C3.05109 11.75 2.86032 11.829 2.71967 11.9697C2.57902 12.1103 2.5 12.3011 2.5 12.5C2.5 12.6989 2.57902 12.8897 2.71967 13.0303C2.86032 13.171 3.05109 13.25 3.25 13.25ZM3.085 1C3.18844 0.707422 3.38008 0.454129 3.63351 0.275028C3.88694 0.0959278 4.18967 -0.00016248 4.5 2.06237e-07H7.5C7.81033 -0.00016248 8.11306 0.0959278 8.36649 0.275028C8.61992 0.454129 8.81156 0.707422 8.915 1H10.5C10.8978 1 11.2794 1.15804 11.5607 1.43934C11.842 1.72064 12 2.10218 12 2.5V14.5C12 14.8978 11.842 15.2794 11.5607 15.5607C11.2794 15.842 10.8978 16 10.5 16H1.5C1.10218 16 0.720644 15.842 0.43934 15.5607C0.158035 15.2794 0 14.8978 0 14.5V2.5C0 2.10218 0.158035 1.72064 0.43934 1.43934C0.720644 1.15804 1.10218 1 1.5 1H3.085ZM4.5 1C4.36739 1 4.24021 1.05268 4.14645 1.14645C4.05268 1.24022 4 1.36739 4 1.5C4 1.63261 4.05268 1.75979 4.14645 1.85355C4.24021 1.94732 4.36739 2 4.5 2H7.5C7.63261 2 7.75979 1.94732 7.85355 1.85355C7.94732 1.75979 8 1.63261 8 1.5C8 1.36739 7.94732 1.24022 7.85355 1.14645C7.75979 1.05268 7.63261 1 7.5 1H4.5ZM3.085 2H1.5C1.36739 2 1.24021 2.05268 1.14645 2.14645C1.05268 2.24022 1 2.36739 1 2.5V14.5C1 14.6326 1.05268 14.7598 1.14645 14.8536C1.24021 14.9473 1.36739 15 1.5 15H10.5C10.6326 15 10.7598 14.9473 10.8536 14.8536C10.9473 14.7598 11 14.6326 11 14.5V2.5C11 2.36739 10.9473 2.24022 10.8536 2.14645C10.7598 2.05268 10.6326 2 10.5 2H8.915C8.81156 2.29258 8.61992 2.54587 8.36649 2.72497C8.11306 2.90407 7.81033 3.00016 7.5 3H4.5C4.18967 3.00016 3.88694 2.90407 3.63351 2.72497C3.38008 2.54587 3.18844 2.29258 3.085 2Z" fill="#BABABA"/>
</svg>
