<svg width="20" height="20" viewBox="0 0 20 20" fill="none" xmlns="http://www.w3.org/2000/svg">
<path d="M1.66675 10.0001L5.83341 13.3334V10.8334H13.3334V9.16675H5.83341V6.66675L1.66675 10.0001Z" fill="#4D4D4D"/>
<path d="M10.8341 2.49905C9.8487 2.49632 8.87256 2.68914 7.96222 3.06636C7.05188 3.44357 6.22543 3.99766 5.53076 4.69655L6.70909 5.87489C7.81076 4.77322 9.27576 4.16572 10.8341 4.16572C12.3924 4.16572 13.8574 4.77322 14.9591 5.87489C16.0608 6.97655 16.6683 8.44155 16.6683 9.99989C16.6683 11.5582 16.0608 13.0232 14.9591 14.1249C13.8574 15.2266 12.3924 15.8341 10.8341 15.8341C9.27576 15.8341 7.81076 15.2266 6.70909 14.1249L5.53076 15.3032C6.9466 16.7199 8.82993 17.5007 10.8341 17.5007C12.8383 17.5007 14.7216 16.7199 16.1374 15.3032C17.5541 13.8874 18.3349 12.0041 18.3349 9.99989C18.3349 7.99572 17.5541 6.11239 16.1374 4.69655C15.4428 3.99766 14.6163 3.44357 13.706 3.06636C12.7956 2.68914 11.8195 2.49632 10.8341 2.49905Z" fill="#4D4D4D"/>
</svg>
