<svg width="14" height="18" viewBox="0 0 14 18" fill="none" xmlns="http://www.w3.org/2000/svg">
<path d="M12.8333 15.6667H1.16667C0.945656 15.6667 0.733695 15.7545 0.577414 15.9108C0.421134 16.0671 0.333336 16.279 0.333336 16.5C0.333336 16.7211 0.421134 16.933 0.577414 17.0893C0.733695 17.2456 0.945656 17.3334 1.16667 17.3334H12.8333C13.0544 17.3334 13.2663 17.2456 13.4226 17.0893C13.5789 16.933 13.6667 16.7211 13.6667 16.5C13.6667 16.279 13.5789 16.0671 13.4226 15.9108C13.2663 15.7545 13.0544 15.6667 12.8333 15.6667ZM1.16667 14H1.24167L4.71667 13.6834C5.09733 13.6455 5.45337 13.4777 5.725 13.2084L13.225 5.70838C13.5161 5.40085 13.6734 4.99047 13.6625 4.56716C13.6516 4.14385 13.4733 3.74213 13.1667 3.45004L10.8833 1.16671C10.5853 0.886791 10.1948 0.726177 9.78611 0.715421C9.3774 0.704665 8.97899 0.844519 8.66667 1.10838L1.16667 8.60838C0.897308 8.88002 0.72959 9.23605 0.69167 9.61671L0.333336 13.0917C0.322111 13.2138 0.337948 13.3368 0.379721 13.452C0.421493 13.5673 0.488172 13.6719 0.575003 13.7584C0.65287 13.8356 0.745217 13.8967 0.846748 13.9382C0.948279 13.9797 1.057 14.0007 1.16667 14ZM9.725 2.33338L12 4.60838L10.3333 6.23338L8.1 4.00004L9.725 2.33338ZM2.30834 9.75838L7 5.10004L9.25 7.35005L4.58334 12.0167L2.08334 12.25L2.30834 9.75838Z" fill="#F24E1E"/>
</svg>
