<svg width="17" height="17" viewBox="0 0 17 17" fill="none" xmlns="http://www.w3.org/2000/svg">
<path d="M16.78 1.28003C16.9125 1.13785 16.9846 0.949808 16.9812 0.755507C16.9778 0.561206 16.8991 0.375821 16.7617 0.238408C16.6242 0.100995 16.4389 0.0222829 16.2446 0.0188546C16.0503 0.0154264 15.8622 0.0875496 15.72 0.22003L13.274 2.66503C12.497 2.13544 11.5596 1.8937 10.6234 1.98151C9.68716 2.06933 8.81099 2.48119 8.14603 3.14603L7.84603 3.44603C7.70755 3.5844 7.59769 3.74871 7.52274 3.92956C7.44779 4.11041 7.40921 4.30426 7.40921 4.50003C7.40921 4.6958 7.44779 4.88965 7.52274 5.0705C7.59769 5.25135 7.70755 5.41566 7.84603 5.55403L11.446 9.15403C11.7255 9.4334 12.1044 9.59035 12.4995 9.59035C12.8947 9.59035 13.2736 9.4334 13.553 9.15403L13.853 8.85403C14.518 8.1892 14.9301 7.31308 15.0181 6.37688C15.1061 5.44068 14.8645 4.50313 14.335 3.72603L16.78 1.28003ZM6.55403 6.84603C6.27461 6.56665 5.89566 6.40971 5.50053 6.40971C5.1054 6.40971 4.72645 6.56665 4.44703 6.84603L4.14703 7.14603C3.48219 7.81098 3.07033 8.68716 2.98252 9.62336C2.8947 10.5596 3.13645 11.497 3.66603 12.274L1.22003 14.72C1.14634 14.7887 1.08724 14.8715 1.04625 14.9635C1.00526 15.0555 0.983217 15.1548 0.98144 15.2555C0.979663 15.3562 0.998188 15.4562 1.03591 15.5496C1.07363 15.643 1.12977 15.7278 1.20099 15.7991C1.27221 15.8703 1.35705 15.9264 1.45043 15.9642C1.54382 16.0019 1.64385 16.0204 1.74455 16.0186C1.84526 16.0168 1.94457 15.9948 2.03657 15.9538C2.12857 15.9128 2.21137 15.8537 2.28003 15.78L4.72603 13.334C5.50291 13.8637 6.44033 14.1057 7.37652 14.018C8.31271 13.9304 9.18895 13.5187 9.85403 12.854L10.154 12.554C10.2925 12.4157 10.4024 12.2513 10.4773 12.0705C10.5523 11.8896 10.5909 11.6958 10.5909 11.5C10.5909 11.3043 10.5523 11.1104 10.4773 10.9296C10.4024 10.7487 10.2925 10.5844 10.154 10.446L6.55403 6.84603V6.84603Z" fill="white"/>
</svg>
