<svg width="15" height="15" viewBox="0 0 15 15" fill="none" xmlns="http://www.w3.org/2000/svg">
<path d="M8.625 1.4375C8.625 1.18886 8.52623 0.950403 8.35041 0.774587C8.1746 0.598772 7.93614 0.5 7.6875 0.5C7.43886 0.5 7.2004 0.598772 7.02459 0.774587C6.84877 0.950403 6.75 1.18886 6.75 1.4375V6.75H1.4375C1.18886 6.75 0.950403 6.84877 0.774587 7.02459C0.598772 7.2004 0.5 7.43886 0.5 7.6875C0.5 7.93614 0.598772 8.1746 0.774587 8.35041C0.950403 8.52623 1.18886 8.625 1.4375 8.625H6.75V13.9375C6.75 14.1861 6.84877 14.4246 7.02459 14.6004C7.2004 14.7762 7.43886 14.875 7.6875 14.875C7.93614 14.875 8.1746 14.7762 8.35041 14.6004C8.52623 14.4246 8.625 14.1861 8.625 13.9375V8.625H13.9375C14.1861 8.625 14.4246 8.52623 14.6004 8.35041C14.7762 8.1746 14.875 7.93614 14.875 7.6875C14.875 7.43886 14.7762 7.2004 14.6004 7.02459C14.4246 6.84877 14.1861 6.75 13.9375 6.75H8.625V1.4375Z" fill="white"/>
</svg>
