<svg width="15" height="15" viewBox="0 0 15 15" fill="none" xmlns="http://www.w3.org/2000/svg">
<path d="M6.31781 0.333374C9.80524 0.333374 12.6356 3.16375 12.6356 6.65119C12.6356 10.1386 9.80524 12.969 6.31781 12.969C2.83038 12.969 0 10.1386 0 6.65119C0 3.16375 2.83038 0.333374 6.31781 0.333374ZM6.31781 11.565C9.03237 11.565 11.2317 9.36574 11.2317 6.65119C11.2317 3.93593 9.03237 1.73733 6.31781 1.73733C3.60256 1.73733 1.40396 3.93593 1.40396 6.65119C1.40396 9.36574 3.60256 11.565 6.31781 11.565ZM12.2741 11.6149L14.26 13.6001L13.2667 14.5934L11.2815 12.6075L12.2741 11.6149V11.6149Z" fill="#BABABA"/>
</svg>
