<svg width="18" height="18" viewBox="0 0 18 18" fill="none" xmlns="http://www.w3.org/2000/svg">
<path d="M6.17491 17.3334C5.76826 17.331 5.37342 17.1965 5.04991 16.9501L3.32491 15.6667C2.92683 15.3564 2.6627 14.9054 2.58676 14.4063C2.51083 13.9073 2.62884 13.3981 2.91657 12.9834C3.06881 12.7586 3.16557 12.5009 3.19888 12.2315C3.2322 11.962 3.20114 11.6885 3.10824 11.4334L3.05824 11.3001C2.99356 11.0692 2.87533 10.8568 2.71316 10.6801C2.551 10.5035 2.34946 10.3676 2.12491 10.2834H1.99157C1.5048 10.1197 1.10225 9.77063 0.871331 9.31192C0.640414 8.8532 0.599775 8.32191 0.75824 7.83342L1.44157 5.66675C1.50448 5.41572 1.62029 5.18102 1.78125 4.97838C1.94222 4.77574 2.14462 4.60982 2.37491 4.49175C2.58937 4.38125 2.82402 4.31541 3.06466 4.29822C3.30529 4.28104 3.54692 4.31285 3.77491 4.39175C4.02314 4.47529 4.28803 4.49695 4.54654 4.45483C4.80505 4.41271 5.04936 4.3081 5.25824 4.15008L5.36657 4.06675C5.55565 3.91588 5.70847 3.7245 5.81375 3.50672C5.91903 3.28894 5.97411 3.05031 5.97491 2.80841V2.60841C5.97267 2.09852 6.17195 1.60839 6.52936 1.24473C6.88678 0.881075 7.37339 0.673337 7.88324 0.666748H10.0082C10.2563 0.667417 10.5018 0.717085 10.7306 0.812901C10.9594 0.908716 11.1671 1.04879 11.3416 1.22508C11.7085 1.59824 11.9123 2.10177 11.9082 2.62508V2.85841C11.904 3.08821 11.9538 3.31578 12.0537 3.52277C12.1536 3.72977 12.3007 3.91039 12.4832 4.05008L12.5749 4.11675C12.7619 4.257 12.9801 4.34995 13.2108 4.38768C13.4415 4.4254 13.6779 4.40679 13.8999 4.33342L14.1832 4.24175C14.4233 4.16217 14.6769 4.13176 14.929 4.15233C15.181 4.17289 15.4264 4.24401 15.6504 4.36145C15.8743 4.47888 16.0724 4.64022 16.2326 4.83585C16.3929 5.03148 16.5122 5.25738 16.5832 5.50008L17.2416 7.60008C17.3939 8.08541 17.3523 8.61088 17.1254 9.06616C16.8985 9.52144 16.5041 9.87111 16.0249 10.0417L15.8582 10.1001C15.6131 10.1804 15.3914 10.3196 15.2127 10.5056C15.034 10.6916 14.9037 10.9186 14.8332 11.1667C14.7669 11.3974 14.7512 11.6397 14.7871 11.877C14.8231 12.1143 14.9099 12.3411 15.0416 12.5417L15.2582 12.8584C15.5456 13.2755 15.6625 13.7866 15.585 14.2871C15.5075 14.7876 15.2415 15.2394 14.8416 15.5501L13.1666 16.8417C12.9642 16.9965 12.7323 17.1082 12.4852 17.17C12.238 17.2317 11.9808 17.2422 11.7294 17.2009C11.4781 17.1595 11.2378 17.0671 11.0235 16.9294C10.8092 16.7917 10.6253 16.6115 10.4832 16.4001L10.3832 16.2584C10.2468 16.0533 10.0605 15.8861 9.84194 15.7724C9.62336 15.6588 9.37954 15.6024 9.13324 15.6084C8.89822 15.6145 8.66792 15.6757 8.46092 15.7872C8.25392 15.8987 8.07602 16.0572 7.94157 16.2501L7.74991 16.5251C7.60778 16.738 7.42354 16.9196 7.20856 17.0586C6.99358 17.1976 6.75241 17.2912 6.49991 17.3334C6.39183 17.344 6.28298 17.344 6.17491 17.3334ZM2.66657 8.68342C3.13715 8.85121 3.56176 9.12714 3.90624 9.48899C4.25072 9.85083 4.50544 10.2885 4.64991 10.7667V10.8667C4.82985 11.3639 4.88894 11.8968 4.82228 12.4213C4.75563 12.9459 4.56515 13.447 4.26657 13.8834C4.21387 13.9416 4.18469 14.0174 4.18469 14.0959C4.18469 14.1745 4.21387 14.2502 4.26657 14.3084L6.05824 15.6667C6.08162 15.6851 6.10865 15.6983 6.13753 15.7053C6.1664 15.7124 6.19645 15.7131 6.22566 15.7076C6.25486 15.7021 6.28255 15.6904 6.30685 15.6733C6.33116 15.6562 6.35152 15.634 6.36657 15.6084L6.55824 15.3334C6.84731 14.9157 7.23336 14.5744 7.68329 14.3386C8.13322 14.1028 8.63361 13.9796 9.14157 13.9796C9.64954 13.9796 10.1499 14.1028 10.5999 14.3386C11.0498 14.5744 11.4358 14.9157 11.7249 15.3334L11.8249 15.4834C11.8607 15.5342 11.9142 15.5699 11.9749 15.5834C12.0027 15.5875 12.0311 15.5859 12.0583 15.5788C12.0856 15.5716 12.111 15.559 12.1332 15.5417L13.8499 14.2417C13.91 14.1941 13.9495 14.1251 13.9604 14.0492C13.9712 13.9732 13.9526 13.896 13.9082 13.8334L13.6916 13.5167C13.4093 13.1051 13.223 12.6353 13.1466 12.142C13.0701 11.6487 13.1054 11.1446 13.2499 10.6667C13.3964 10.1646 13.6613 9.70488 14.0224 9.32639C14.3835 8.9479 14.8302 8.66166 15.3249 8.49175L15.4916 8.43341C15.561 8.40559 15.6167 8.35142 15.6463 8.28272C15.676 8.21403 15.6773 8.13639 15.6499 8.06675L14.9999 5.99175C14.9843 5.95544 14.9615 5.92269 14.9328 5.89547C14.9042 5.86825 14.8703 5.84714 14.8332 5.83342C14.8087 5.82097 14.7816 5.81448 14.7541 5.81448C14.7266 5.81448 14.6994 5.82097 14.6749 5.83342L14.3916 5.92508C13.9123 6.08327 13.4017 6.12268 12.9039 6.03994C12.406 5.9572 11.9356 5.75478 11.5332 5.45008L11.4999 5.37508C11.1138 5.08268 10.8007 4.70476 10.5853 4.27099C10.3699 3.83722 10.2579 3.35941 10.2582 2.87508V2.61675C10.2597 2.53643 10.2298 2.45869 10.1749 2.40008C10.127 2.35675 10.0645 2.33297 9.99991 2.33341H7.88324C7.84929 2.33553 7.81609 2.34434 7.78556 2.35932C7.75502 2.3743 7.72774 2.39517 7.70528 2.42072C7.68283 2.44627 7.66564 2.476 7.65471 2.50821C7.64378 2.54042 7.63931 2.57447 7.64157 2.60841V2.81675C7.64163 3.31428 7.52745 3.80518 7.30784 4.25162C7.08823 4.69806 6.76905 5.08813 6.37491 5.39175L6.26657 5.47508C5.84135 5.79884 5.34301 6.01302 4.81549 6.09876C4.28796 6.18451 3.74744 6.13917 3.24157 5.96675C3.20372 5.95404 3.16276 5.95404 3.12491 5.96675C3.07788 5.99532 3.04246 6.03959 3.02491 6.09175L2.33324 8.26675C2.30913 8.34083 2.31478 8.42138 2.34899 8.49136C2.38321 8.56135 2.44331 8.61528 2.51657 8.64175L2.66657 8.68342Z" fill="#4D4D4D"/>
</svg>
