<svg width="10" height="14" viewBox="0 0 10 14" fill="none" xmlns="http://www.w3.org/2000/svg">
<path d="M1.2574 0.387467C1.14152 0.503109 1.04959 0.640469 0.98686 0.791686C0.924133 0.942903 0.891846 1.10501 0.891846 1.26872C0.891846 1.43243 0.924133 1.59453 0.98686 1.74575C1.04959 1.89696 1.14152 2.03432 1.2574 2.14997L6.1074 6.99997L1.2574 11.85C1.02368 12.0837 0.892375 12.4007 0.892375 12.7312C0.892375 13.0617 1.02368 13.3787 1.2574 13.6125C1.49112 13.8462 1.80812 13.9775 2.13865 13.9775C2.46918 13.9775 2.78618 13.8462 3.0199 13.6125L8.7574 7.87497C8.87328 7.75932 8.96521 7.62196 9.02794 7.47075C9.09067 7.31953 9.12296 7.15743 9.12296 6.99372C9.12296 6.83001 9.09067 6.6679 9.02794 6.51669C8.96521 6.36547 8.87328 6.22811 8.7574 6.11247L3.0199 0.374966C2.5449 -0.100034 1.7449 -0.100033 1.2574 0.387467Z" fill="#FAFAFA"/>
</svg>
