<svg width="21" height="21" viewBox="0 0 21 21" fill="none" xmlns="http://www.w3.org/2000/svg">
<path d="M10.5 16.4896C9.31541 16.4896 8.15739 16.1383 7.17241 15.4802C6.18742 14.8221 5.41972 13.8866 4.96639 12.7922C4.51305 11.6977 4.39444 10.4934 4.62555 9.33153C4.85665 8.16966 5.42711 7.10242 6.26476 6.26476C7.10242 5.42711 8.16966 4.85665 9.33153 4.62555C10.4934 4.39444 11.6977 4.51305 12.7922 4.96639C13.8866 5.41972 14.8221 6.18742 15.4802 7.17241C16.1383 8.15739 16.4896 9.31541 16.4896 10.5C16.4869 12.0877 15.8549 13.6096 14.7323 14.7323C13.6096 15.8549 12.0877 16.4869 10.5 16.4896ZM10.5 6.07296C9.62444 6.07296 8.76851 6.3326 8.04048 6.81905C7.31245 7.30551 6.74502 7.99692 6.40995 8.80587C6.07487 9.61481 5.9872 10.505 6.15802 11.3637C6.32884 12.2225 6.75048 13.0113 7.36962 13.6305C7.98876 14.2496 8.77759 14.6712 9.63636 14.8421C10.4951 15.0129 11.3853 14.9252 12.1942 14.5901C13.0032 14.2551 13.6946 13.6876 14.181 12.9596C14.6675 12.2316 14.9271 11.3756 14.9271 10.5C14.9244 9.32675 14.4571 8.2023 13.6274 7.37266C12.7978 6.54301 11.6733 6.07571 10.5 6.07296ZM10.5 3.20837C10.2937 3.20568 10.0965 3.1225 9.9506 2.97657C9.80466 2.83064 9.72149 2.63349 9.71879 2.42712V0.864624C9.71879 0.657424 9.8011 0.458709 9.94761 0.312197C10.0941 0.165684 10.2928 0.083374 10.5 0.083374C10.7072 0.083374 10.906 0.165684 11.0525 0.312197C11.199 0.458709 11.2813 0.657424 11.2813 0.864624V2.42712C11.2786 2.63349 11.1954 2.83064 11.0495 2.97657C10.9036 3.1225 10.7064 3.20568 10.5 3.20837ZM10.5 20.9167C10.2937 20.914 10.0965 20.8308 9.9506 20.6849C9.80466 20.539 9.72149 20.3418 9.71879 20.1355V18.573C9.71879 18.3658 9.8011 18.167 9.94761 18.0205C10.0941 17.874 10.2928 17.7917 10.5 17.7917C10.7072 17.7917 10.906 17.874 11.0525 18.0205C11.199 18.167 11.2813 18.3658 11.2813 18.573V20.1355C11.2786 20.3418 11.1954 20.539 11.0495 20.6849C10.9036 20.8308 10.7064 20.914 10.5 20.9167ZM20.1355 11.2813H18.573C18.3658 11.2813 18.167 11.199 18.0205 11.0525C17.874 10.906 17.7917 10.7072 17.7917 10.5C17.7917 10.2928 17.874 10.0941 18.0205 9.94761C18.167 9.8011 18.3658 9.71879 18.573 9.71879H20.1355C20.3427 9.71879 20.5414 9.8011 20.6879 9.94761C20.8344 10.0941 20.9167 10.2928 20.9167 10.5C20.9167 10.7072 20.8344 10.906 20.6879 11.0525C20.5414 11.199 20.3427 11.2813 20.1355 11.2813ZM2.42712 11.2813H0.864624C0.657424 11.2813 0.458709 11.199 0.312197 11.0525C0.165684 10.906 0.083374 10.7072 0.083374 10.5C0.083374 10.2928 0.165684 10.0941 0.312197 9.94761C0.458709 9.8011 0.657424 9.71879 0.864624 9.71879H2.42712C2.63432 9.71879 2.83304 9.8011 2.97955 9.94761C3.12606 10.0941 3.20837 10.2928 3.20837 10.5C3.20837 10.7072 3.12606 10.906 2.97955 11.0525C2.83304 11.199 2.63432 11.2813 2.42712 11.2813ZM4.77087 5.55212C4.56989 5.53675 4.38292 5.44327 4.25004 5.29171L3.11462 4.25004C3.04007 4.17549 2.98093 4.08698 2.94059 3.98957C2.90024 3.89217 2.87947 3.78776 2.87947 3.68233C2.87947 3.5769 2.90024 3.4725 2.94059 3.37509C2.98093 3.27768 3.04007 3.18918 3.11462 3.11462C3.18918 3.04007 3.27768 2.98093 3.37509 2.94059C3.4725 2.90024 3.5769 2.87947 3.68233 2.87947C3.78776 2.87947 3.89217 2.90024 3.98957 2.94059C4.08698 2.98093 4.17549 3.04007 4.25004 3.11462L5.29171 4.25004C5.41982 4.39327 5.49065 4.5787 5.49065 4.77087C5.49065 4.96304 5.41982 5.14847 5.29171 5.29171C5.15882 5.44327 4.97186 5.53675 4.77087 5.55212ZM17.3334 18.1146C17.2307 18.1151 17.129 18.0951 17.0342 18.0557C16.9394 18.0164 16.8534 17.9585 16.7813 17.8855L15.7084 16.75C15.6387 16.6043 15.616 16.4405 15.6433 16.2812C15.6707 16.122 15.7467 15.9752 15.8609 15.8609C15.9752 15.7467 16.122 15.6707 16.2812 15.6433C16.4405 15.616 16.6043 15.6387 16.75 15.7084L17.8855 16.75C18.0318 16.8965 18.1139 17.0951 18.1139 17.3021C18.1139 17.5092 18.0318 17.7077 17.8855 17.8542C17.816 17.9329 17.7312 17.9966 17.6363 18.0414C17.5414 18.0862 17.4383 18.1111 17.3334 18.1146ZM16.2292 5.55212C16.0282 5.53675 15.8413 5.44327 15.7084 5.29171C15.5803 5.14847 15.5094 4.96304 15.5094 4.77087C15.5094 4.5787 15.5803 4.39327 15.7084 4.25004L16.75 3.11462C16.9006 2.96406 17.1048 2.87947 17.3177 2.87947C17.5307 2.87947 17.7349 2.96406 17.8855 3.11462C18.036 3.26519 18.1206 3.4694 18.1206 3.68233C18.1206 3.89526 18.036 4.09947 17.8855 4.25004L16.75 5.29171C16.6172 5.44327 16.4302 5.53675 16.2292 5.55212ZM3.66671 18.1146C3.56406 18.1151 3.46235 18.0951 3.36755 18.0557C3.27274 18.0164 3.18675 17.9585 3.11462 17.8855C2.96832 17.739 2.88614 17.5404 2.88614 17.3334C2.88614 17.1263 2.96832 16.9278 3.11462 16.7813L4.25004 15.7084C4.39582 15.6387 4.55961 15.616 4.71884 15.6433C4.87807 15.6707 5.02492 15.7467 5.13916 15.8609C5.2534 15.9752 5.32941 16.122 5.35673 16.2812C5.38405 16.4405 5.36133 16.6043 5.29171 16.75L4.25004 17.8855C4.17428 17.9624 4.0832 18.0225 3.98272 18.062C3.88223 18.1015 3.77457 18.1194 3.66671 18.1146Z" fill="#858585"/>
</svg>
