<svg width="11" height="12" viewBox="0 0 11 12" fill="none" xmlns="http://www.w3.org/2000/svg">
<path d="M10.1434 0.709209C9.95207 0.602753 9.74165 0.535053 9.52415 0.509982C9.30666 0.484911 9.08635 0.502959 8.87583 0.563096C8.66531 0.623233 8.46872 0.724278 8.29728 0.860452C8.12584 0.996627 7.98293 1.16526 7.87672 1.35671L4.78255 6.92504L3.01172 5.15421C2.85798 4.99503 2.67407 4.86805 2.47073 4.78071C2.26739 4.69336 2.04869 4.64738 1.82739 4.64546C1.60609 4.64353 1.38662 4.6857 1.1818 4.76951C0.97697 4.85331 0.790883 4.97706 0.634396 5.13355C0.477908 5.29004 0.354153 5.47612 0.270351 5.68095C0.18655 5.88578 0.14438 6.10525 0.146303 6.32654C0.148226 6.54784 0.194203 6.76654 0.281552 6.96988C0.3689 7.17322 0.49587 7.35713 0.655054 7.51088L3.98839 10.8442C4.30339 11.16 4.72839 11.3334 5.16672 11.3334L5.39755 11.3167C5.65301 11.281 5.89669 11.1864 6.1094 11.0405C6.32212 10.8946 6.49806 10.7013 6.62339 10.4759L10.7901 2.97588C10.8964 2.78458 10.9641 2.57421 10.9892 2.35678C11.0142 2.13934 10.9962 1.91909 10.9362 1.70861C10.8761 1.49812 10.7752 1.30153 10.6392 1.13005C10.5032 0.958577 10.3347 0.815574 10.1434 0.709209Z" fill="#019267"/>
</svg>
